<svg xmlns="http://www.w3.org/2000/svg" xmlns:xlink="http://www.w3.org/1999/xlink" width="2162.652" height="3053.152" viewBox="0 0 2162.652 3053.152">
  <defs>
    <clipPath id="clip-path">
      <rect id="Rectangle_4" data-name="Rectangle 4" width="2162.652" height="3053.152" fill="none"/>
    </clipPath>
    <clipPath id="clip-path-2">
      <rect id="Rectangle_3" data-name="Rectangle 3" width="2162.652" height="3053.156" fill="none"/>
    </clipPath>
  </defs>
  <g id="Group_84" data-name="Group 84" transform="translate(2162.652 3053.152) rotate(180)">
    <g id="Group_6" data-name="Group 6" clip-path="url(#clip-path)">
      <g id="Group_5" data-name="Group 5" transform="translate(0 0)">
        <g id="Group_4" data-name="Group 4" clip-path="url(#clip-path-2)">
          <g id="Group_3" data-name="Group 3" transform="translate(0 0)" opacity="0.4">
            <g id="Group_2" data-name="Group 2">
              <g id="Group_1" data-name="Group 1" clip-path="url(#clip-path)">
                <path id="Path_1" data-name="Path 1" d="M51.842,0A436.869,436.869,0,0,1,0,15.518V12.881A445.428,445.428,0,0,0,44.3,0Z" transform="translate(0 0)" fill="#0e1811"/>
                <path id="Path_2" data-name="Path 2" d="M124.483,0C85.461,21.766,41.742,34.487,0,42.313v-2.6C39.915,32.2,81.584,20.164,119.127,0Z" transform="translate(0 0)" fill="#0e1811"/>
                <path id="Path_3" data-name="Path 3" d="M0,62.266C62.577,50.824,122.544,33.333,171.4,0h4.15c-21.53,15.019-46.313,27.727-74.64,38.275C68.193,50.475,33.691,58.738,0,64.9Z" transform="translate(0 0.001)" fill="#0e1811"/>
                <path id="Path_4" data-name="Path 4" d="M0,88.95C76.267,77.621,159.591,53.828,223.793,0h3.641C199.157,24.038,165.354,43.829,126.2,59.108c-36.724,14.35-78.44,25-126.2,32.216Z" transform="translate(0 0)" fill="#0e1811"/>
                <path id="Path_5" data-name="Path 5" d="M0,114.419C121.8,96.74,211.111,58.911,270,0h7.133c-32.253,33.432-73.7,60.478-123.975,80.8C109.45,98.454,58.887,111.288,0,119.647Z" transform="translate(0 0)" fill="#0e1811"/>
                <path id="Path_6" data-name="Path 6" d="M0,144.124C115.574,130.185,240.192,91.945,316.956,0h3.18C284.855,42.586,236.964,76.776,176.92,102.083,125.611,123.7,66.314,138.582,0,146.633Z" transform="translate(0 0)" fill="#0e1811"/>
                <path id="Path_7" data-name="Path 7" d="M0,174.485C120.169,161.143,273.822,119.462,361.133,0h3.033c-38.092,52.464-92.071,94.381-161.243,125.09C135.153,155.18,62.477,170,0,177.007Z" transform="translate(0 0)" fill="#0e1811"/>
                <path id="Path_8" data-name="Path 8" d="M0,207.171C117.623,194.163,307.738,149.563,405,0h3.094c-40.1,62.5-99.673,112.554-177.915,149.317C152.184,185.978,69.619,202.859,0,210.09Z" transform="translate(0 0)" fill="#0e1811"/>
                <path id="Path_9" data-name="Path 9" d="M0,242.85c27.059-2.771,53.532-6.409,77.4-10.745C250.865,200.613,375.892,122.63,450.2,0h2.847A452.969,452.969,0,0,1,325.951,136.233c-67.332,47.619-150.793,80.715-248.092,98.38C53.843,238.975,27.219,242.639,0,245.422Z" transform="translate(0 0)" fill="#0e1811"/>
                <path id="Path_10" data-name="Path 10" d="M0,284.915c27.9-3.837,55.6-8.074,82.789-12.261l3.241-.5C274.046,238.589,408.739,149.279,495.741,0h5.876C413.909,152.184,277.623,243.138,86.865,277.2l-3.306.509C56.14,281.923,28.188,286.195,0,290.072Z" fill="#0e1811"/>
                <path id="Path_11" data-name="Path 11" d="M0,346.522c13.505-2.781,27.4-5.478,41.841-8.15a378.789,378.789,0,0,1,53.123-11.8c18.646-5.664,38.55-10.632,59.124-14.781C334.188,274.27,471.824,136.135,553.2,0h3.193c-38.823,65.78-86.741,125.4-140.97,174.958-78.8,72.017-168.994,120.2-260.825,139.327-20.5,4.137-40.316,9.1-59.074,14.771a376.6,376.6,0,0,0-53.072,11.8c-14.7,2.706-28.8,5.451-42.451,8.261Z" transform="translate(0 0)" fill="#0e1811"/>
                <path id="Path_12" data-name="Path 12" d="M0,742.306a214.64,214.64,0,0,0,15.629-50.713c9.912-32.773,8-68.663,6.15-103.375-2.012-37.63-4.089-76.551,8.707-112.132l.112-.25c30.774-49.133,86.542-71.52,140.932-90.193,23.727-10.4,48.861-20.061,76.8-29.542C389.881,305.5,483.49,186.052,574.006,70.542,592.369,47.111,611.042,23.292,630.161,0h3.315C613.9,23.8,594.791,48.167,576.018,72.117c-90.75,115.8-184.584,235.547-326.856,286.395-27.89,9.467-52.95,19.107-76.715,29.506-54,18.548-109.275,40.712-139.613,89.064-12.559,35.057-10.5,73.669-8.508,111,1.861,34.934,3.788,71.061-6.213,104.108A216.211,216.211,0,0,1,0,748.357Z" transform="translate(0 -0.001)" fill="#0e1811"/>
                <path id="Path_13" data-name="Path 13" d="M579.125,1190.254c-63.359-16.723-123.177-46.751-181.019-75.8-74.816-37.541-152.162-76.364-237.721-86.453a453.02,453.02,0,0,0-153.9-1.578A11.329,11.329,0,0,1,0,1028.974v-7.727a3.294,3.294,0,0,0,1.875-.994l.9-.969,1.306-.225a460.19,460.19,0,0,1,157.463,1.379c86.641,10.2,164.6,49.334,239.994,87.176,57.508,28.86,116.967,58.713,179.444,75.211,59.209,13.95,127.512,3.092,178.248-28.35,39.694-24.6,65.819-59.545,75.583-101.079,9.219-63.258-9.964-123.088-28.523-180.945-9.9-30.908-20.15-62.874-26.013-95.187-5.106-34.97-5.627-65.1-1.554-89.585.124-1.315.223-2.633.335-3.95.646-8.113,1.331-16.511,5.939-23.864,32.648-82.007,104.219-134.2,173.442-184.673,32.338-23.579,65.771-47.954,94.119-74.763l.288-.261c55.867-43,95.7-87.484,118.431-132.233l.024-.125c.448-3.218.994-6.808,3.058-9.342l.172-1.07c1.243-7.256,2.535-14.759,5.517-21.641.1-1.738.3-3.552.5-5.317.673-5.676,1.341-11.553-1.241-15.157l-.573-.806-.125-.982c-.644-5.689-1.836-13.019-5.391-19.181l-.272-.461-.125-.5c-7.478-28.908-31.705-49.68-55.161-69.782l-.72-.608c-35.045-23.306-72.429-44.2-108.581-64.4C975.168,40,941.4,21.107,908.742,0H923c29.333,18.435,59.447,35.293,89.088,51.88,36.338,20.311,73.92,41.319,109.289,64.836l1.266,1.043c23.085,19.792,49.248,42.189,57.445,73.174,3.878,6.933,5.27,14.61,6.015,20.772a20.6,20.6,0,0,1,2.707,11.092,79.181,79.181,0,0,1-.646,8.511c-.223,1.974-.448,3.84-.522,5.517l-.025.745-.3.671c-2.806,6.164-4,13.106-5.241,20.462l-.623,3.615-1.091.893c-.771.634-1.219,3.815-1.491,5.715l-.225,1.354-.272.559c-23.184,45.917-63.783,91.437-120.706,135.278-28.672,27.1-62.254,51.582-94.727,75.26-68.429,49.9-139.19,101.512-170.971,181.643l-.347.669c-3.753,5.817-4.324,13.022-4.946,20.663-.112,1.388-.223,2.793-.359,4.185l-.025.275c-3.965,23.716-3.443,53.11,1.529,87.211,5.75,31.692,15.925,63.408,25.766,94.093,18.82,58.738,38.3,119.476,28.77,184.549l-.062.313c-10.2,43.63-37.531,80.278-79.038,106.009-52.4,32.473-122.928,43.7-184.139,29.269" transform="translate(0 0)" fill="#0e1811"/>
                <path id="Path_14" data-name="Path 14" d="M582.753,1255.675c-59.644-14.459-115.549-42.909-169.615-70.413-64.625-32.886-131.452-66.9-205.1-77.138-62.328-12.847-128.956-5.268-173.542,1.541-11.48,2.745-23.171,5.727-34.5,8.608v-2.634c11.143-2.844,22.624-5.763,34.014-8.485,44.887-6.845,111.809-14.46,174.46-1.539,74,10.287,141.005,44.388,205.818,77.372,53.93,27.443,109.7,55.819,168.969,70.179,33.942,5.514,73.757,9.665,111.662-1.391,42.487-8.8,183.889-46.525,219.109-162.472,11.131-64.538-7.64-125.228-25.791-183.927-8.5-27.456-17.269-55.854-22.82-84.219l-.56-3.925c-5.007-35.518-10.67-75.756-.956-111.662,27.516-107.72,126.456-181.045,222.129-251.944,73.236-54.278,148.943-110.395,193.891-182.053a205.14,205.14,0,0,1,7.728-21.652c1.366-3.48,2.806-7.058,4.1-10.609.448-3.7,1.068-7.43,1.714-11.368,2.164-12.872,4.374-26.189-.172-38.252-18.338-93.933-97.647-134.98-174.351-174.673C1109.4,10.075,1099.8,5.094,1090.247,0h5.429c8.136,4.31,16.312,8.546,24.435,12.747,77.247,39.978,157.1,81.31,175.617,176.248a46.292,46.292,0,0,1,2.781,16.712c0,7.49-1.266,15.156-2.508,22.659-.673,3.962-1.293,7.7-1.741,11.39l-.074.288c-1.316,3.625-2.758,7.28-4.176,10.821a197.917,197.917,0,0,0-7.65,21.566l-.176.348c-45.171,72.141-121.152,128.445-194.636,182.9-95.312,70.637-193.866,143.675-221.183,250.539-9.58,35.42-4.189,73.66,1.03,110.657l.535,3.862c5.516,28.162,14.273,56.489,22.746,83.882,18.25,59,37.108,120,25.842,185.268-35.681,117.463-178.239,155.515-220.988,164.361-38.29,11.18-78.453,7.008-112.779,1.428" transform="translate(0 0)" fill="#0e1811"/>
                <path id="Path_15" data-name="Path 15" d="M573.51,1321.8c-55.794-15.579-107.723-43.818-157.949-71.148-61.483-33.432-125.065-68.008-195.943-79.3-47.183-9.231-100.353-8.734-167.167,1.528-17.6,3.791-35.282,8.7-52.451,13.53v-5.3c16.819-4.722,34.1-9.507,51.519-13.244,67.571-10.385,121.288-10.871,168.982-1.542,71.67,11.419,135.638,46.2,197.493,79.846,49.981,27.184,101.661,55.295,156.7,70.676,41.965,8.149,74.428,8.661,102.156,1.578l.288-.062c18.212-2.434,33.455-6.236,46.585-11.627l.448-.138c20.574-4.348,40.2-12.51,58.527-20.5l5.491-2.4c78.353-34.364,175.851-77.1,204.289-165.241.422-3.146.93-6.362,1.465-9.629,2.3-14.288,4.671-29.071.163-42.08l-.125-.509c-5.852-45.172-20.634-88.465-34.946-130.345-9.7-28.412-19.729-57.78-26.912-87.523-1.1-2.47-.943-5.142-.807-7.515.173-3.094.212-4.9-1.291-6.074l-.683-.533-.21-.845c-1.727-6.773-2.324-13.854-2.9-20.685-.62-7.257-1.193-14.114-2.994-20.574l-.087-.5c-2.262-30.274.236-57.394,7.417-80.613l.15-.4a8.909,8.909,0,0,0,.41-3.891c-.063-2.547-.15-5.961,2.672-8.335,31.915-91.025,115.984-155.825,190.189-213.024q10.693-8.236,21.117-16.346c18.685-14.078,38.663-27.879,57.993-41.234,64.4-44.5,131.016-90.505,170.127-159.652a146.8,146.8,0,0,1,8.818-26.413c4.9-21.826,5.442-43.878,1.469-60.749-12.1-76.118-64.478-131.2-123.663-181h7.8c56.776,48.549,108.93,104.913,120.855,180a113.114,113.114,0,0,1,2.808,25.9,175.709,175.709,0,0,1-4.348,37.22l-.173.51a142.045,142.045,0,0,0-8.7,26.076l-.249.658c-39.655,70.327-106.865,116.753-171.864,161.652-19.255,13.318-39.208,27.081-57.743,41.07-6.933,5.4-14.013,10.846-21.12,16.337-73.844,56.912-157.541,121.428-188.748,211.383l-.285.822-.721.47c-1.106.746-1.193,1.9-1.13,4.511a13.3,13.3,0,0,1-.845,6.112c-6.92,22.5-9.342,48.847-7.17,78.3,1.878,6.846,2.5,14.176,3.094,21.256a128.5,128.5,0,0,0,2.573,19.109c2.93,2.831,2.707,6.646,2.521,9.761-.125,2-.223,3.9.435,5.257l.186.522c7.118,29.593,17.144,58.937,26.834,87.311,14.363,42.042,29.209,85.511,35.144,131.078,4.822,14.162,2.349,29.481-.022,44.314-.535,3.3-1.056,6.56-1.478,9.727l-.112.448c-29.033,90.467-127.8,133.774-207.159,168.559l-5.491,2.409c-18.512,8.063-38.34,16.312-59.3,20.76-13.455,5.5-29,9.381-47.483,11.864-28.45,7.231-61.581,6.748-104.456-1.6" transform="translate(0 0)" fill="#0e1811"/>
                <path id="Path_16" data-name="Path 16" d="M593.648,1413.624c-51.519-6.46-84.194-30.125-122.023-57.519-7.378-5.354-15.018-10.883-22.931-16.363-45.507-31.516-97.077-61.307-153.131-88.453l-1.465-.5c-16.078-5.478-32.7-11.142-48.849-17.282a9.628,9.628,0,0,0-4.5-.544c-2.585.06-5.491.134-7.478-2.412C154.223,1213.634,75.523,1226.493,0,1249.19v-2.671c75.794-22.711,154.807-35.493,234.292-18.349l.508.112.285.423c1.145,1.727,2.87,1.775,5.605,1.7a11.7,11.7,0,0,1,5.578.768c15.988,6.076,32.6,11.729,48.662,17.2l1.591.56c56.327,27.27,108.02,57.122,153.626,88.715,7.938,5.491,15.579,11.031,22.983,16.387,37.582,27.232,70.055,50.736,121.04,57.084l.4.112c8.546,4.138,17.565,2.336,27.107.436,5.266-1.043,10.7-2.125,16.026-2.112,2.449-2.634,5.849-2.436,8.883-2.249,2.173.125,4.236.25,6.064-.634,55.631-17.539,109.646-42.771,161.888-67.184,32.761-15.307,66.626-31.122,100.541-44.9,34.014-16.571,70.6-32.523,115.015-50.127,4.573-2.582,9.317-5.094,14.35-7.74,27.417-14.46,58.5-30.86,62.949-63.893l.15-.46c3.254-5.839,2.509-13.666,1.789-21.23-.225-2.459-.448-4.8-.521-7.045-2.672-2.46-2.473-5.877-2.3-8.907.137-2.186.25-4.236-.634-6.089-13.006-43.169-33.07-85.582-52.462-126.591-40.376-85.4-82.143-173.7-64.054-275.339l.1-.547.445-.3c1.728-1.141,1.779-2.87,1.7-5.6a11.872,11.872,0,0,1,.821-5.714l.323-.4c1.515-1.254,1.963-4.336,2.4-7.318l.16-1.081.211-.26a26.9,26.9,0,0,0,5.641-14.1l.137-.447c58.886-112.853,164.336-180.373,266.332-245.682,51.831-33.183,105.424-67.5,151.59-106.99,4.073-5.194,8.422-10.362,12.622-15.368,14.484-17.2,29.442-34.984,35.579-56.687l.125-.288c3.775-6.56,5.043-14.225,5.74-20.164l.049-.532.422-.336c2.112-1.641,1.964-4.2,1.789-7.143-.148-2.422-.3-4.909.8-7.119,4.223-9.467,2.311-19.889.448-29.99a101.662,101.662,0,0,1-2.112-16.561c-14.809-67.37-57-123.388-97.8-177.553-1.738-2.323-3.5-4.646-5.266-6.981h3.205c1.366,1.814,2.732,3.639,4.1,5.442,41,54.425,83.384,110.7,98.269,178.67l.048.263a97.053,97.053,0,0,0,2.064,16.26c1.043,5.753,2.137,11.605,2.137,17.406a34.449,34.449,0,0,1-2.783,14.126c-.82,1.641-.7,3.7-.57,5.877.173,3.068.372,6.508-2.336,8.957-.7,6.075-2.064,13.764-5.916,20.521-6.309,22.154-21.417,40.116-36.026,57.484-4.2,4.981-8.522,10.138-12.747,15.466-46.487,39.806-100.156,74.157-152.034,107.388-101.65,65.084-206.762,132.384-265.35,244.5a29.44,29.44,0,0,1-5.937,14.9l-.051.4c-.5,3.341-.994,6.783-3.069,8.709a10.492,10.492,0,0,0-.448,4.285c.064,2.584.138,5.48-2.384,7.455-17.715,100.629,23.789,188.4,63.943,273.3,19.441,41.1,39.531,83.6,52.512,126.754,1.119,2.262.969,4.758.82,7.17-.174,2.944-.323,5.5,1.79,7.142l.47.375.026.595c.049,2.349.3,4.822.547,7.443.746,7.876,1.515,16.013-2.012,22.511-4.722,34.188-36.339,50.861-64.24,65.583-5.007,2.632-9.74,5.128-14.45,7.778-44.5,17.652-81.039,33.579-115.066,50.164-33.938,13.777-67.78,29.593-100.5,44.874-52.314,24.447-106.405,49.717-162.024,67.235-2.262,1.1-4.745.956-7.156.82-2.957-.174-5.5-.323-7.155,1.776l-.386.5-.646-.012c-5.241-.1-10.745.992-16.074,2.061-9.468,1.889-19.256,3.838-28.525-.548" transform="translate(0 0)" fill="#0e1811"/>
                <path id="Path_17" data-name="Path 17" d="M2059.886,1453.008c-51.506-97.4-134.99-153.776-253.486-171.568l-.669-.2c-1.789-.82-4.149-.648-6.658-.472-3.7.247-7.878.57-11.156-2.385-33.046-4.448-68.154-9.245-102.47-14.662-4.87-.694-9.864-1.289-14.683-1.861-12.946-1.564-26.361-3.154-38.837-7.08l-.345-.125c-1.369-.671-3.257-.573-5.269-.448-3.056.176-6.783.4-9.616-2.384-8.721-.943-17.84-2.237-26.089-5.89-127.016-25.715-194.722-148.855-248.219-262.3-27.9-62.689-50.164-128.382-71.658-191.916q-5.516-16.287-11.055-32.548l-.125-.546c-1.119-10.362-4.821-19.954-8.647-28.8l-.147-.4c-11.851-48.2-21.841-84.551-32.425-117.872l-.1-.5c-1.119-10.334-4.821-19.926-8.647-28.773l-.125-.4a451.556,451.556,0,0,0-32.351-88.232c-21.889-54.96-66.887-98.566-103.682-130.418-45.433-31.828-90.753-65.621-134.6-98.32C854.391,201.953,767.064,136.855,675.418,83.086c-93.871-52.054-206.65-28-305.079-1.366C247.721,110.74,138.657,64.378,33.183,19.53,22.225,14.884,11.143,10.162,0,5.516V0C11.816,4.9,23.567,9.89,35.182,14.833,139.9,59.359,248.167,105.4,369.082,76.777,468.4,49.892,582.357,25.641,677.953,78.665c91.932,53.917,179.38,119.114,263.932,182.176,43.844,32.672,89.176,66.488,134.571,98.293l.21.15c37.259,32.251,82.876,76.454,105.09,132.308a455.259,455.259,0,0,1,32.6,88.853c3.926,9.068,7.7,18.983,8.921,29.791,10.559,33.317,20.549,69.67,32.4,117.773,3.925,9.068,7.7,18.932,8.919,29.765q5.519,16.14,10.959,32.3c21.492,63.435,43.68,129,71.485,191.446,52.972,112.354,119.984,234.352,244.862,259.472l.521.173c7.951,3.578,17.1,4.77,25.793,5.692l1.068.122.67.843c1.168,1.491,2.982,1.467,6.062,1.294,2.409-.148,5.119-.3,7.6.843,11.976,3.754,24.5,5.245,37.742,6.835,4.87.569,9.889,1.168,14.858,1.888,34.587,5.465,69.942,10.287,103.215,14.758l.918.126.622.67c1.641,1.766,4,1.714,7.726,1.442,2.784-.2,5.912-.423,8.8.769,121.078,18.263,206.1,76.254,258.182,176.562Z" transform="translate(0 1600.15)" fill="#0e1811"/>
                <path id="Path_18" data-name="Path 18" d="M1991.508,1408.509c-39.8-54.514-103.038-97.226-173.056-113.8-8.946-.968-18.388-2.212-26.809-5.939-62.74-11.851-129.8-12.148-194.649-12.448-34.936-.15-71.037-.3-106-2.286-49.222-2.634-72.677-49.865-91.51-87.806-1.939-3.9-3.853-7.754-5.792-11.554-73.495-171.468-127.884-312.149-171.215-442.868-4.3-20.124-11.355-39.655-18.165-58.562-1.814-5.019-3.628-10.04-5.442-15.232-4.15-20.026-9.912-37.294-17.59-52.822l-.1-.248c-4.77-18.088-10.535-33.446-17.69-47.186-4.2-14.436-8.821-25.593-14.735-35.307-25.916-68.055-75.88-133.128-157.192-204.737l-14.8-11.976C884.988,231.422,790.086,154.572,685,99.461c-9.17-2.659-17.927-6.532-26.4-10.285-5.765-2.56-11.717-5.194-17.668-7.378-6.124-.7-13.988-2.039-20.859-5.965-73.186-20.5-148.309-3.775-220.961,12.4-5.789,1.292-11.554,2.56-17.355,3.826-50.924,7.8-93.5,9.266-130.2,4.521C181.741,87.512,117.834,57.5,56.041,28.476,37.629,19.829,18.945,11.058,0,2.785V0C19.331,8.4,38.375,17.345,57.135,26.163,118.743,55.109,182.461,85.026,251.9,94.046c36.45,4.722,78.8,3.254,129.388-4.473,5.727-1.268,11.479-2.56,17.27-3.827C471.577,69.5,547.075,52.675,620.917,73.423l.285.125c6.56,3.775,14.225,5.043,20.164,5.738l.3.051c6.075,2.236,12.126,4.918,17.965,7.5,8.435,3.728,17.157,7.6,26.2,10.188l.235.1c105.352,55.259,200.4,132.208,292.321,206.625l14.833,12.026c81.673,71.9,131.861,137.3,157.826,205.557,5.915,9.689,10.66,21.044,14.81,35.48,7.13,13.641,12.945,29.145,17.765,47.357,7.753,15.7,13.566,33.147,17.715,53.173,1.74,5.018,3.552,10.012,5.366,15.033,6.86,18.983,13.941,38.612,18.238,58.762,43.258,130.518,97.648,271.151,171.071,442.469,1.914,3.727,3.826,7.575,5.763,11.5,19.5,39.286,41.642,83.811,89.348,86.394,34.91,1.963,70.988,2.11,105.873,2.261,65.022.3,132.258.6,195.27,12.522l.3.075c8.1,3.628,17.368,4.87,26.314,5.838,45.319,10.711,90.343,33.3,126.792,63.61a282.816,282.816,0,0,1,49.322,52.7Z" transform="translate(0 1644.649)" fill="#0e1811"/>
                <path id="Path_19" data-name="Path 19" d="M850.9,1244.418l-.336-.4c-1.641-2.112-4.188-1.961-7.143-1.789-2.41.151-4.909.3-6.957-.745-3.033-.87-6.05-1.863-9.083-2.857-7.426-2.435-15.105-4.969-23.168-5.939l-.31-.074c-4.089-1.616-8.2-3.379-12.187-5.094-8.361-3.577-17-7.3-26.016-9.64l-.335-.125c-86.8-51.855-157.874-130.717-226.6-207C452,914.5,362.29,814.946,240.2,769.228c-13.317-6.635-26.461-12.747-40.922-14.61l-.372-.123c-9.307-4.4-20.1-7.107-35.01-8.722l-.3-.074c-10.338-3.779-21.927-4.871-32.265-5.865C88.727,731.882,44.041,728.254,0,725.4v-2.559c44.163,2.86,88.976,6.51,131.7,14.486,10.322.969,22.026,2.087,32.636,5.914,15.018,1.664,25.99,4.4,35.48,8.869,14.76,1.939,28.064,8.126,41.408,14.784,122.543,45.892,212.461,145.677,299.425,242.156,68.563,76.1,139.466,154.769,225.857,206.426,9.141,2.358,17.826,6.112,26.225,9.714,3.9,1.689,7.95,3.43,11.952,4.969,8.249,1.043,15.989,3.577,23.492,6.037,3.007.994,6,1.964,9.2,2.931,1.654.8,3.715.7,5.89.573,3.056-.2,6.5-.4,8.956,2.311,65.447,7.976,138.385,4.348,205.508-10.262,2.646-1.168,5.564-.943,8.4-.745,3.553.25,6.622.473,8.759-1.863l.247-.275.374-.1c9.852-2.585,20.177-5.042,31.084-7.627,86.241-20.375,193.581-45.767,171.913-184.014-.969-10.24-2.064-21.815-5.888-32.351-8.373-45.792-22.636-90.964-35.383-129.8-5.018-22.237-12.771-43.953-20.3-64.922-2.089-5.865-4.175-11.7-6.235-17.617l-4.573-14.76c-24.9-80.627-50.661-163.988-86.864-241.908C1065.187,394.913,945.1,288.893,823.454,195.344l-8.348-5.664c-42.177-28.623-85.807-58.216-132.929-79.809a29.607,29.607,0,0,1-14.984-5.987,144.146,144.146,0,0,1-26.31-8.795c-52.4-14.411-105.637-17.045-150.025-7.4-18.25,1.715-31.8,4.423-43.956,8.771l-.3.073c-8.784.943-18.04,2.162-26.164,5.79l-.4.125c-11.281,1.143-22.176,3.949-32.711,6.684-2.807.72-5.616,1.441-8.41,2.135C263.461,140.308,165.44,88.653,70.652,38.712,47.468,26.511,23.913,14.113,0,2.832V0C24.325,11.43,48.288,24.051,71.83,36.45,166.211,86.168,263.785,137.576,378.3,108.779c2.793-.7,5.589-1.417,8.4-2.137,10.561-2.732,21.482-5.542,32.886-6.735,8.373-3.7,17.728-4.943,26.611-5.913,12.311-4.372,26.014-7.106,44.276-8.844C535.1,75.458,588.766,78.117,641.75,92.7a144.548,144.548,0,0,0,26.314,8.772l.5.247a26.9,26.9,0,0,0,14.1,5.616l.4.125c47.383,21.693,91.149,51.384,133.489,80.107l8.408,5.689c122,93.846,242.393,200.164,296.646,341.515,36.276,78,62.042,161.43,86.964,242.131l4.571,14.733c2.036,5.865,4.125,11.7,6.211,17.543,7.555,21.07,15.33,42.836,20.35,65.1,12.747,38.836,27.032,84.081,35.38,129.823,3.878,10.635,4.994,22.413,5.964,32.7a223.734,223.734,0,0,1,2.883,34.785c0,110.244-97.226,133.253-176.735,152.059-10.77,2.534-20.957,4.947-30.687,7.506-2.944,2.932-6.98,2.659-10.559,2.384-2.672-.173-5.206-.372-7.292.6l-.25.076c-67.594,14.735-141.1,18.385-206.983,10.287Z" transform="translate(0 1687.41)" fill="#0e1811"/>
                <path id="Path_20" data-name="Path 20" d="M867.88,1118.124l-.608-.771c-1.181-1.491-2.982-1.465-6.076-1.291-2.458.148-5.241.3-7.788-.944l-.621-.3-.386-.573c-.746-1.116-1.888-1.215-4.508-1.141a13.037,13.037,0,0,1-6.188-.893c-12.261-4.671-24.957-9-37.243-13.17q-10.794-3.651-21.593-7.428l-.26-.1c-45.78-22.336-85.771-54.686-124.595-86.119-45.357-43.108-88.145-90.043-129.525-135.463-61.556-67.533-125.2-137.377-197.954-195-27.58-24.547-61.384-39.405-87.746-49.592l-.348-.173c-6.374-3.677-13.865-4.921-19.678-5.591l-.944-.1-.646-.7c-1.629-1.788-4-1.714-7.727-1.44-2.772.2-5.9.422-8.773-.746-56.389-6.907-114.89-2.632-171.465,1.515C22.237,618.9,11.143,619.7,0,620.444v-5.116c11.018-.746,21.99-1.517,32.833-2.313,56.95-4.172,115.825-8.473,172.835-1.466l.745.225c1.789.82,4.163.646,6.659.473,3.7-.275,7.864-.573,11.145,2.359,6.124.745,13.79,2.137,20.6,6.04,26.736,10.335,60.984,25.443,89.012,50.387C406.789,728.8,470.57,798.794,532.251,866.5c41.323,45.347,84.057,92.23,129.129,135.067,38.414,31.084,78.13,63.21,123.327,85.275,7.131,2.534,14.274,4.943,21.392,7.378,12.373,4.2,25.158,8.549,37.531,13.269l.25.1a9.177,9.177,0,0,0,3.888.422c2.559-.074,6.012-.147,8.386,2.734a13.918,13.918,0,0,0,4.745.223c3.082-.173,6.86-.4,9.692,2.434,114.73,19.159,295.017-8.1,319.564-127.561,5.989-33.246,5.493-69.323-1.316-99.09-1.241-2.906-1.019-6.086-.818-8.9.3-3.727.345-6.086-1.417-7.727l-.746-.671-.074-.993c-.87-10.312-1.666-20.026-5.692-28.673l-.2-.621a559.015,559.015,0,0,0-20.547-82.268l-.1-.4c-2.585-15.6-6.385-28.92-11.627-40.7l-.125-.323c-12.772-44.724-27.308-92.455-47.1-138.4l-.112-.345a123.382,123.382,0,0,0-11.554-28.923l-.237-.4-.073-.47c-1.181-7.653-5.155-14.587-9.007-21.293-.845-1.469-1.689-2.96-2.508-4.424l-.113-.247C1014.154,373.172,879.744,233.209,708,136.954c-7.327-2.784-14.682-5.714-21.789-8.573-12.932-5.193-26.3-10.535-39.7-14.884l-2.052-.345c-7.33-1.266-14.907-2.559-21.753-5.616-71.757-16.772-140.731,4.893-207.431,25.841-18.6,5.839-37.842,11.9-56.665,16.919l-.323.076c-3.069.4-6.149.82-9.217,1.216-27.379,3.753-55.693,7.6-83.211.25C201.1,135.588,144.867,98.118,90.49,61.866,61.211,42.339,31.369,22.461,0,5.765V0C32.437,17.044,63.172,37.518,93.324,57.617c54.015,36,109.871,73.251,173.814,89.3,26.562,7.08,54.364,3.279,81.25-.372,3.017-.422,6.05-.822,9.068-1.219,18.66-4.994,37.793-11.007,56.29-16.821,67.433-21.171,137.153-43.085,210.365-25.89l.47.172c6.3,2.835,13.32,4.051,20.75,5.318l2.236.4.347.076c13.617,4.4,27.132,9.814,40.2,15.058,7.143,2.857,14.535,5.839,21.865,8.6l.349.172c172.731,96.753,308,237.634,371.108,386.467q1.176,2.122,2.409,4.247c4,6.984,8.138,14.189,9.554,22.586a128.946,128.946,0,0,1,11.766,29.519c19.841,46.115,34.4,93.895,47.2,138.695,5.344,12.05,9.244,25.666,11.876,41.542a566.347,566.347,0,0,1,20.647,82.491c4.125,9.119,5.069,19.281,5.89,29.171,2.906,3.279,2.609,7.4,2.336,11.105-.175,2.484-.348,4.87.472,6.659l.172.5a240.636,240.636,0,0,1,5.667,53.2,274.477,274.477,0,0,1-4.249,48.2c-25.292,123.164-209.68,151.266-326.324,131.512Z" transform="translate(0 1729.277)" fill="#0e1811"/>
                <path id="Path_21" data-name="Path 21" d="M0,493.85c2.374-.72,4.809-1.465,7.356-2.336A386.7,386.7,0,0,0,77.97,467.986C136.6,441.973,202.388,409.423,241.26,352.375c1.952-7.6,4.722-17.443,8.972-26.636a9.815,9.815,0,0,0,.544-4.5c-.06-2.534-.135-5.394,2.287-7.381.075-3.279.311-6.608.56-10.136.721-10.46,1.466-21.27-1.852-29.964a11.623,11.623,0,0,1-.807-5.692c.075-2.732.024-4.473-1.7-5.616l-.288-.2-.148-.3c-25.791-51.459-67.4-95.512-107.623-138.123-10.61-11.23-21.568-22.861-31.955-34.314C74.428,59.406,38.737,28.55,0,3.055V0C39.47,25.791,75.67,57.1,111.028,87.709c10.485,11.529,21.431,23.131,32.028,34.361C183.345,164.733,225,208.862,250.964,260.541c2.7,1.964,2.609,4.946,2.547,7.58a9.88,9.88,0,0,0,.6,4.62c2.074,5.417,2.685,11.43,2.685,17.643,0,4.473-.31,9.019-.621,13.514-.261,3.728-.511,7.231-.573,10.636l-.012.671-.56.372c-1.726,1.141-1.764,2.882-1.7,5.589a11.75,11.75,0,0,1-.793,5.692,151.726,151.726,0,0,0-8.847,26.361l-.185.4c-39.233,57.746-105.474,90.516-164.485,116.7A387.378,387.378,0,0,1,8.05,493.975c-2.8.945-5.451,1.766-8.05,2.559Z" transform="translate(0 1778.374)" fill="#0e1811"/>
                <path id="Path_22" data-name="Path 22" d="M0,379.409c43.332-22.065,79.609-56.179,102.579-97.9,32.773-76.975,5.046-147.315-23.988-192.758C58.476,57.273,31.132,27.779,0,3.206V0C32,25,60.155,55.135,80.738,87.387c19.917,31.157,39.211,73.894,39.211,122.543a184.182,184.182,0,0,1-15.07,72.7C81.422,325.242,44.3,359.978,0,382.266Z" transform="translate(0 1825.657)" fill="#0e1811"/>
                <path id="Path_23" data-name="Path 23" d="M0,201.035a169.411,169.411,0,0,0,28.808-60.228C38.475,94.442,26.784,45.047,0,4.546V0C22.1,32.1,34.712,70.067,34.712,107.883a163.388,163.388,0,0,1-3.417,33.5A172.023,172.023,0,0,1,0,205.185Z" transform="translate(0 1901.638)" fill="#0e1811"/>
                <path id="Path_24" data-name="Path 24" d="M1462.375,588.344c-13.79-36.551-35.458-69.7-72.256-86-91.757-4.595-180.462,10.536-266.256,25.2-11.23,1.936-22.474,3.85-33.829,5.736a450.9,450.9,0,0,0-52.589,8.749c-2.908,1.24-6.089,1.018-8.907.795-3.727-.247-6.1-.324-7.727,1.441l-.646.721-.945.1A452.763,452.763,0,0,0,966.4,553.88l-.285.051c-8.361.965-17.01,2.135-25.37,3.229-41.694,5.516-84.789,11.23-125.8,1.266-13.255-.82-25.2-5.465-36.75-9.962-1.7-.67-3.391-1.341-5.253-2.039-83.6-38.286-141.105-111.908-196.712-183.093-27.219-34.837-55.356-70.865-86.155-102.072C410.591,167.939,325.082,101.075,236.006,62.488c-14.733-5.888-29.9-11.131-44.589-16.224-9.491-3.3-19.316-6.685-28.908-10.236A408.193,408.193,0,0,1,115.424,24.25l-3.4-.474c-8.756-1.19-17.815-2.434-26.1-5.413C73.546,17.2,63.246,15.976,53.407,12.446l-2.384-.323C34.226,9.788,17.144,7.452,0,5.168V0C17.38,2.336,34.686,4.695,51.718,7.055l2.659.374.521.125c10.187,3.7,21.68,4.793,31.83,5.763l.633.15c7.865,2.883,16.349,4.025,25.343,5.266l3.641.5.423.1a401.968,401.968,0,0,0,46.909,11.729l.41.1c9.605,3.552,19.469,6.982,29.009,10.287,14.735,5.094,29.964,10.387,44.872,16.35C327.839,96.678,413.958,164.037,493.84,257.808c30.883,31.283,59.109,67.435,86.417,102.369,55.234,70.712,112.356,143.835,194.659,181.53,1.714.671,3.43,1.319,5.144,1.986,11.243,4.4,22.871,8.921,35.42,9.668l.445.049c40.154,9.815,82.852,4.173,124.145-1.318,8.339-1.094,16.948-2.236,25.309-3.205a451.26,451.26,0,0,1,52.389-8.77c3.28-2.932,7.44-2.635,11.142-2.363,2.5.176,4.869.351,6.661-.469l.47-.176a450.492,450.492,0,0,1,53.285-8.869q16.827-2.831,33.692-5.715c86.193-14.732,175.343-29.964,267.82-25.245l.473.026.423.2c39.233,17.169,61.868,52.351,76.08,90.839Z" transform="translate(0 2464.813)" fill="#0e1811"/>
                <path id="Path_25" data-name="Path 25" d="M665.891,538.031c-15.94-23.332-31.656-46.961-47.1-70.193C511.109,305.888,399.758,138.445,215.869,61.173l-18.289-6.634c-18.138-6.584-36.884-13.392-55.333-19.877-6.112-.695-13.95-2.039-20.81-5.939A402.979,402.979,0,0,1,74.415,16.97c-8.894-.943-18.263-2.211-26.649-5.912l-3.414-.473c-8.76-1.191-17.828-2.435-26.041-5.44C12.2,4.323,6.075,3.478,0,2.585V0C6.236.918,12.511,1.814,18.784,2.634l.272.076c7.989,2.931,16.561,4.1,25.641,5.34l3.6.5.336.1c8.136,3.65,17.392,4.845,26.175,5.788l.25.051a397.586,397.586,0,0,0,47.06,11.775l.41.15c6.546,3.777,14.212,5.043,20.151,5.74l.285.047c18.5,6.512,37.3,13.346,55.484,19.954l18.35,6.659c184.647,77.573,296.223,245.361,404.117,407.609,15.764,23.705,31.8,47.807,48.067,71.609Z" transform="translate(0 2515.127)" fill="#0e1811"/>
                <path id="Path_26" data-name="Path 26" d="M581.249,492.957c-76.7-177.68-221.072-401.623-474.422-465.006l-9.616-2.384C74.092,19.826,50.2,13.914,27.3,7.3,17.219,5.913,8.261,4.373,0,2.608V0C8.373,1.788,17.479,3.377,27.817,4.821c23.043,6.632,46.922,12.546,70,18.26l9.618,2.387C216.4,52.725,315.016,112.7,400.54,203.715c72.218,76.851,133.947,174.2,183.479,289.242Z" transform="translate(0 2560.2)" fill="#0e1811"/>
                <path id="Path_27" data-name="Path 27" d="M520.849,452.259C447.515,242.406,284.631,78.043,97.946,28.55,81.7,24.077,65.16,19.8,49.172,15.653,32.959,11.455,16.239,7.132,0,2.634V0C16.536,4.571,33.445,8.946,49.805,13.2c16,4.15,32.55,8.421,48.8,12.894C200.153,53,295.465,113.1,374.254,199.916,439.8,272.144,490.946,358.86,523.494,452.259Z" transform="translate(0 2600.898)" fill="#0e1811"/>
                <path id="Path_28" data-name="Path 28" d="M468.558,414.269C406.864,223.77,256.293,75.361,71.236,24.324,60.415,23.082,50.525,19.33,41.457,15.4A420.512,420.512,0,0,1,0,5.366V0A403.32,403.32,0,0,0,42.687,10.435l.546.175c8.834,3.827,18.423,7.53,28.774,8.646l.4.074C168.659,45.842,257.822,99.535,330.276,174.6A619.786,619.786,0,0,1,473.914,414.269Z" transform="translate(-0.001 2638.889)" fill="#0e1811"/>
                <path id="Path_29" data-name="Path 29" d="M424.606,374.836C360.637,189.008,216.588,56.647,21.32,7.23,13.915,5.813,6.845,4.272,0,2.632V0C7.008,1.714,14.262,3.279,21.879,4.745c196.5,49.718,341.33,182.994,405.434,370.091Z" transform="translate(0 2678.322)" fill="#0e1811"/>
                <path id="Path_30" data-name="Path 30" d="M381.383,339.707C328.647,184.861,197.967,61.7,27.094,10.413,18,7.7,9.068,5.072,0,2.638V0C9.317,2.487,18.488,5.172,27.83,7.977,199.8,59.583,331.268,183.695,384.08,339.707Z" transform="translate(0 2713.451)" fill="#0e1811"/>
                <path id="Path_31" data-name="Path 31" d="M339.318,306.734C284.694,165.156,154.731,49.77,0,5.292V0C157.515,44.8,289.836,162.449,344.785,306.734Z" transform="translate(0 2746.424)" fill="#0e1811"/>
                <path id="Path_32" data-name="Path 32" d="M298.161,268.394C248.293,144.781,135.339,44.051,0,2.41V0A501.69,501.69,0,0,1,177.406,98.817c55.593,48,97.968,106.615,123.389,169.577Z" transform="translate(0 2784.764)" fill="#0e1811"/>
                <path id="Path_33" data-name="Path 33" d="M262.057,236.964C215.394,130.472,117,42.463,0,2.46V0A473.13,473.13,0,0,1,153.265,88.381c49.284,42.462,87.524,93.721,111.512,148.582Z" transform="translate(0 2816.194)" fill="#0e1811"/>
                <path id="Path_34" data-name="Path 34" d="M219.42,199.495C175.02,111.883,94.494,39.655,0,2.508V0A436.631,436.631,0,0,1,126.233,77.075c40.987,35.827,73.485,77.4,96.109,122.419Z" transform="translate(0 2853.663)" fill="#0e1811"/>
                <path id="Path_35" data-name="Path 35" d="M173.4,159.963C135.849,93.275,72.777,36.151,0,2.806V0A398.963,398.963,0,0,1,97.411,62.81c33.083,28.974,59.819,61.872,79.26,97.154Z" transform="translate(0 2893.194)" fill="#0e1811"/>
                <path id="Path_36" data-name="Path 36" d="M125.6,117.675C95.472,70.689,51.084,30.163,0,2.882V0C52.451,27.754,97.984,69.395,128.594,117.675Z" transform="translate(0 2935.483)" fill="#0e1811"/>
                <path id="Path_37" data-name="Path 37" d="M72.813,71.211A297.185,297.185,0,0,0,0,3.057V0A300.617,300.617,0,0,1,75.968,71.211Z" transform="translate(0 2981.946)" fill="#0e1811"/>
                <path id="Path_38" data-name="Path 38" d="M13.988,16.622C9.529,12.048,4.856,7.6,0,3.354V0C6.137,5.266,11.976,10.832,17.5,16.622Z" transform="translate(0 3036.535)" fill="#0e1811"/>
                <path id="Path_39" data-name="Path 39" d="M0,193.293v-3.2c115.166,89.086,275.934,124.618,384.664,35.864a132.134,132.134,0,0,0,21.617-33.418,123.714,123.714,0,0,0,1.2-18.224c0-6.1-.3-12.671-.979-21.281C367.493,61.669,265.237,15.416,189.594,3.565,118.295-1.74,52.874,13.727,0,47.594V44.549C53.084,10.994,118.556-4.275,189.879,1.031,266.332,12.994,369.57,59.781,408.94,152.224l.1.4c.695,8.783,1,15.466,1,21.691a125.567,125.567,0,0,1-1.254,18.771l-.1.323c-5.18,11.829-12.411,23.021-22.25,34.375-77.014,62.874-166.05,58.354-227.185,43.5C103.883,257.795,48.227,230.289,0,193.293" transform="translate(0 1285.865)" fill="#0e1811"/>
                <path id="Path_40" data-name="Path 40" d="M47.342,25.5A29.143,29.143,0,0,0,37.267,4.011l-.3-.2C26.048-1.394,13.6-1.258,4.481,4.159l-.3.175-.16.3C-.04,11.786-1.048,21.016,1.1,30.906l.2.448A29.911,29.911,0,0,0,25.39,44.175a24.037,24.037,0,0,0,20.422-10.14l.176-.332a25.6,25.6,0,0,0,1.353-8.2M35.7,6.036c7.765,7.03,10.955,17.541,7.925,26.671a21.564,21.564,0,0,1-18.212,8.921A27.357,27.357,0,0,1,3.549,30.11C1.637,21.081,2.494,12.682,6.071,6.183,14.409,1.388,25.7,1.327,35.7,6.036" transform="translate(159.171 1404.186)" fill="#0e1811"/>
                <path id="Path_41" data-name="Path 41" d="M873.046,203.65l-.072-.259c-1.6-5.8-2.883-11.765-4.125-17.531-1.566-7.266-3.181-14.772-5.467-22.126l-.175-.36C810.547,88.6,720.278,30.807,609.016.628c-10.027-.879-20.09-.646-29.805-.423-2.124.051-4.248.1-6.359.139C544,5.386,515.751,19.215,483.728,43.887c-53.881,49.57-92.368,109.313-129.6,167.081-39.37,61.125-80.082,124.31-138.943,175.294-17.391,13.964-35.778,27.046-53.555,39.692-15.965,11.368-32.477,23.107-48.255,35.483C48,520.954,29.38,604.6,11.364,685.49c-3.589,16.151-7.3,32.833-11.317,48.9l-.037.16v.163c.088,6.137.051,12.261.024,18.4C.024,756.3,0,759.482,0,762.662c0,7.543.1,13.32.3,18.724l.075.385a138.729,138.729,0,0,1,3.853,14.161c1.676,7.131,3.4,14.5,6.77,21.171,5.042,9.442,11.5,18.187,17.751,26.635,2.572,3.48,5.157,6.971,7.628,10.5l.225.25C80.627,891.8,130.628,920.5,178.98,948.256c13.009,7.454,26.452,15.18,39.583,22.945,61.173,36.474,127.051,73.3,200.649,87.745,15.939.224,34.224.4,52.2-.074,37.989-7.913,65.619-23.629,84.688-48.091,11.49-19.357,22.612-40.909,22.612-74.2,0-5.119-.275-10.463-.808-15.879-5.231-52.874-31.917-110.543-57.719-166.31-11.778-25.456-23.964-51.766-33.617-76.752-8.36-21.628-17.952-50.886-17.952-85.508a180.125,180.125,0,0,1,2.1-27.442,16.018,16.018,0,0,0,1.307-6.137c4.633-10.475,11.256-21.071,20.831-33.333,4.873-5.887,10.748-10.485,16.413-14.933,5.391-4.223,10.969-8.6,15.8-14.138,28.288-16.994,57.781-33.02,86.3-48.512,68.3-37.121,138.933-75.5,198.612-130.271C826,300.64,839.566,282.737,852.1,265.831a192.448,192.448,0,0,0,20.907-61.9Zm-12.035-38.971c2.21,7.193,3.8,14.572,5.339,21.715,1.232,5.715,2.5,11.627,4.089,17.418a189.449,189.449,0,0,1-20.5,60.665c-12.375,16.683-25.892,34.51-41.744,51.071-59.384,54.5-129.872,92.8-198.039,129.836-28.613,15.54-58.192,31.618-86.578,48.675l-.311.259c-4.709,5.429-10.225,9.765-15.579,13.953-5.777,4.521-11.753,9.205-16.834,15.341-9.788,12.562-16.55,23.393-21.268,34.127l-.112.5a13.432,13.432,0,0,1-1.155,5.554l-.1.336a182.327,182.327,0,0,0-2.15,28c0,35.442,10.338,66.3,18.113,86.431,9.692,25.056,21.891,51.417,33.681,76.9,25.715,55.583,52.314,113.053,57.507,165.491.521,5.331.8,10.6.8,15.63,0,32.648-10.947,53.855-22.166,72.775-18.583,23.817-45.73,39.233-82.876,47-17.714.448-35.964.272-51.655.062C346.5,1042.077,280.84,1005.366,219.868,969c-13.145-7.778-26.6-15.493-39.619-22.974-48.2-27.666-98.057-56.264-141.872-93.4-2.462-3.5-5.021-6.959-7.579-10.412-6.188-8.386-12.586-17.047-17.543-26.3-3.2-6.374-4.908-13.591-6.547-20.572A142.753,142.753,0,0,0,2.845,781.1c-.2-5.318-.288-11.02-.288-18.437q0-4.77.025-9.541c.038-6.1.064-12.188-.013-18.273,4-16.052,7.706-32.7,11.3-48.8C31.792,605.545,50.313,522.3,115.025,463.385c15.654-12.273,32.138-24,48.08-35.343,17.815-12.685,36.224-25.779,53.718-39.818C276,336.967,316.805,273.619,356.275,212.359c37.135-57.644,75.532-117.25,129.09-166.521C516.97,21.5,544.873,7.833,573.1,2.877c1.922-.014,4.047-.061,6.171-.112,9.654-.225,19.629-.458,29.308.374,110.368,29.952,200.088,87.334,252.431,161.54" transform="translate(171.158 49.797)" fill="#0e1811"/>
                <path id="Path_42" data-name="Path 42" d="M819.554,701.387q0-13.937-.05-27.878l-.049-12.67C789.988,461.892,719.174,300.486,608.991,180.95c-12.6-12.5-26.114-26.016-41.345-41.322C499.764,80.148,424.543,22.5,334.1,3.294,204.734-17.823,99.149,66.579,21.617,142.463,7.417,163.159,0,189.148,0,217.772a194.062,194.062,0,0,0,12.348,66.664C112.667,453.318,205.494,582.67,304.57,691.771,381.806,774.289,502.686,882.495,660.287,869.9,698,863.364,740.9,853.945,774.121,824.7c2.848-2.957,5.727-5.84,8.885-8.9,21.728-23.379,30.313-53.072,36.35-81.72.148-9.937.2-20.25.2-32.7m-817-483.615c0-28.126,7.269-53.593,21-73.67C100.506,68.817,205.458-15.116,333.63,5.806,423.448,24.864,498.35,82.282,565.9,141.494c15.179,15.256,28.7,28.77,41.255,41.246,109.8,119.088,180.377,280.046,209.771,478.3l.022,12.5c.025,9.269.076,18.561.076,27.852,0,12.424-.076,22.736-.2,32.427-5.939,28.026-14.375,57.32-35.643,80.2-3.132,3.029-6.024,5.938-8.821,8.821-32.636,28.77-75.123,38.065-112.382,44.524-156.4,12.5-276.667-95.212-353.53-177.307-98.94-108.977-191.667-238.2-291.811-406.713A191.807,191.807,0,0,1,2.558,217.772" transform="translate(298.471 1894.491)" fill="#0e1811"/>
                <path id="Path_43" data-name="Path 43" d="M601.736,583.573v-.026C601.724,434.741,545.722,288.991,439.774,162,377.359,95.856,300.334,25.367,201.78,3.452l-.163-.051-.173.026c-8.148.323-15.876-.871-23.356-2.039C174.872.893,171.554.372,168.223,0,125.4,1.936,86.093,17.592,54.341,45.245c-28.8,29.394-47.046,68.6-54.29,116.63C.013,163.988,0,165.923,0,167.888,0,299.723,58.453,427.783,183.952,570.9a9.452,9.452,0,0,1,2.41,3.728,13.671,13.671,0,0,0,2.149,3.678c88.865,93.448,175.739,141.6,265.625,147.241,37.058-3.156,83.471-11.306,115.338-46.911,18.559-22.436,25.965-50.413,31.965-77.174.21-6.111.3-12.05.3-17.889M201.384,5.961C299.191,27.779,375.805,97.946,437.861,163.69,543.373,290.159,599.177,435.363,599.177,583.547v.026c0,5.813-.087,11.727-.26,17.59-5.9,26.189-13.207,53.843-31.382,75.808-31.233,34.91-77.025,42.935-113.424,46.017-89.025-5.592-175.356-53.471-263.724-146.421a11.168,11.168,0,0,1-1.689-2.983,11.87,11.87,0,0,0-2.944-4.5C60.8,426.592,2.559,299.053,2.559,167.888q0-2.908.038-5.814C9.739,114.765,27.743,76.028,56.092,47.107,87.336,19.9,126.11,4.448,168.138,2.534c3.067.372,6.36.893,9.554,1.391,7.553,1.168,15.355,2.384,23.692,2.036" transform="translate(448.506 1959.259)" fill="#0e1811"/>
                <path id="Path_44" data-name="Path 44" d="M402.156,385.939h0a287.178,287.178,0,0,0-1.714-29.891c-9.206-86.418-58.726-186.176-132.484-266.853C226.9,52.074,177.1,12.718,117.823,1.067A104.635,104.635,0,0,0,34.289,25.439l-.288.3C15.095,48.124,6.7,75.6.422,101.942l-.06.473C.125,107.531,0,112.776,0,117.942,0,214.25,40.849,318.928,109.262,397.989c59.185,68.378,125.823,107.188,192.748,112.259l.3.022.3-.049c26.013-4.222,52.687-11.083,71.533-32.523l.26-.373c15.728-25.791,27.755-48.922,27.755-91.387M37.767,29.191A99.6,99.6,0,0,1,116.978,6.108c57.9,11.38,107.013,50.214,147.39,86.689,72.864,79.758,121.9,178.424,130.993,263.8a280.338,280.338,0,0,1,1.689,29.343c0,41.021-11.64,63.508-26.885,88.555-17.717,20-43.17,26.561-68.078,30.637-82.654-6.362-148.373-63.585-188.96-110.5C45.482,316.493,5.106,213.056,5.106,117.942c0-5.021.112-10.088.336-15.031C11.541,77.3,19.7,50.66,37.767,29.191" transform="translate(562.181 2060.711)" fill="#0e1811"/>
                <path id="Path_45" data-name="Path 45" d="M173.046,69.575h0c0-10.585-3.133-21.218-9.307-31.642l-.162-.224C151.366,24.85,136.854,10.65,119.14,4.988c-24.9-9.059-51.246-5.705-74.129,9.465C18.846,31.783,1.616,61.687.012,92.47L0,92.646l.05.173c2.807,12.313,8.883,24.375,18.549,36.872,11.7,11.17,26.659,14.573,41.119,17.865,1.54.347,3.082.709,4.608,1.056,28.588,2.237,62.689-10.187,85.051-30.885,15.479-14.337,23.668-30.984,23.668-48.153M161.617,39.36C167.5,49.337,170.5,59.5,170.5,69.575c0,16.436-7.9,32.437-22.858,46.277-21.866,20.251-55.185,32.4-82.914,30.25-1.344-.334-2.894-.683-4.433-1.031-14.128-3.215-28.735-6.546-39.794-17.095C11.231,115.99,5.317,104.311,2.573,92.422c1.615-29.929,18.4-58.974,43.839-75.846C68.616,1.868,94.143-1.386,118.321,7.4c17.132,5.491,31.332,19.366,43.3,31.963" transform="translate(681.742 198.918)" fill="#0e1811"/>
                <path id="Path_46" data-name="Path 46" d="M470.756,251.772v-.026c-.022-65.593-15.726-131.8-44.276-186.41l-.147-.211a416.979,416.979,0,0,0-38.241-40.911l-.345-.222c-5.89-2.723-11.878-5.729-17.668-8.637-8.684-4.374-17.677-8.883-26.5-12.509l-.323-.087c-109.511-14.51-226.6,28.685-321.23,118.518l-.2.25c-6.435,10.2-11.839,20.82-17.716,32.66a39.276,39.276,0,0,0-1.268,9.241C2.6,167.8,2.374,171.938.2,175.418l-.2.347.013.385c1.043,21.9,10.57,41.112,19.789,59.7,1.616,3.256,3.231,6.512,4.809,9.817l.185.271c5.989,6.859,11.914,14.213,17.655,21.318C57.57,285.986,73.2,305.342,92.752,319.6c3.853,3.556,7.628,7.5,11.282,11.33,4.31,4.523,8.77,9.2,13.69,13.566C176.76,396.852,265.113,455.29,336.064,462.248c15.939,1.566,29.641-.746,39.655-2.435,3.43-.6,6.409-1.094,8.869-1.318l.473-.147,1.466-.8c14.162-7.5,28.773-15.255,39.7-28.9,29.171-50.093,44.526-111.215,44.526-176.884M424.269,66.628C452.594,120.854,468.2,186.6,468.2,251.746v.026c0,65.222-15.232,125.9-44.054,175.44-10.51,13.1-24.9,20.723-38.81,28.1l-1.243.645c-2.485.273-5.416.772-8.795,1.341-9.877,1.641-23.382,3.926-38.984,2.387-70.43-6.882-160.846-67.383-216.886-117.1-4.847-4.3-9.269-8.945-13.543-13.418-3.69-3.85-7.49-7.825-11.516-11.552-19.393-14.14-34.91-33.371-49.929-51.982-5.714-7.08-11.628-14.384-17.6-21.242-1.564-3.257-3.154-6.46-4.745-9.691-9.467-19.057-18.4-37.1-19.5-58.276,2.311-3.966,2.559-8.486,2.806-12.86a39.338,39.338,0,0,1,1.081-8.459C12.226,143.6,17.565,133.079,23.9,123.029,117.9,33.841,234.106-9.068,342.761,5.268c8.683,3.578,17.578,8.049,26.175,12.376,5.74,2.879,11.679,5.862,17.54,8.583a410.259,410.259,0,0,1,37.793,40.4" transform="translate(737.734 1340.203)" fill="#0e1811"/>
                <path id="Path_47" data-name="Path 47" d="M278.481,153.876h0C278.481,89.709,246.168,17.741,174,1.6,112.068-6.646,31.826,16.25,1.453,85.933l-.186.7A170.069,170.069,0,0,0,0,108.433c0,7.105.323,14.983,1,24.77l.038.448.16.371C18.459,174.574,48.9,212.588,84.715,238.305c40.312,28.922,84.389,41.246,127.474,35.607l.435-.051,1.926-.993c14.4-7.33,29.283-14.909,40.126-29.321,15.406-25.12,23.805-56.9,23.805-89.671M6.284,87.648C35.7,20.649,113.338-1.328,173.106,6.634c69.2,15.479,100.281,85.112,100.281,147.241,0,31.854-8.15,62.663-22.934,86.792-9.989,13.291-23.7,20.273-38.226,27.654l-1.146.57C120.717,280.444,38.126,207.347,6.073,132.432c-.655-9.489-.969-17.117-.969-24A164.2,164.2,0,0,1,6.284,87.648" transform="translate(851.322 1428.656)" fill="#0e1811"/>
                <path id="Path_48" data-name="Path 48" d="M1085.877,2912.574c-17.393-44.65-59.88-98.2-122.346-102.069l-.47-.051c-48.3-8.918-99.014-13.019-148.037-16.993-51.581-4.176-104.9-8.5-155.787-18.389-100.754-15.8-189.284-75.558-255.946-172.834-55.161-80.5-94.717-185.428-111.364-295.327-10.757-55.929-11.254-115.139-1.391-166.7l.076-.323c29.17-101.474,132.357-125.9,223.372-147.464,21.689-5.144,42.164-9.989,61.172-15.678,25.814-8.649,49.047-15.432,71.011-20.723,107.586-34.014,223.5-81.423,237.434-213.879l.2-.922c2.857-7.751,4-16.224,5.219-25.167l.522-3.779c4.6-22.509,7.454-46.438,8.794-73.395,6.188-60.7,13.17-129.516,1.466-193.644-10.955-54.748-63.531-87.323-105.224-98.592l-.348-.125c-47.806-18.247-97-35.48-144.582-52.139-17.69-6.186-35.356-12.387-53.222-18.721-31.357-13.057-65.146-26.736-100.058-38.264l-.275-.1c-42.71-17.828-86.961-33.916-129.771-49.471-24.2-8.8-49.222-17.889-73.7-27.206C160.017,1111.3,48.64,988.113,8.812,846.749c-4.348-9.529-5.244-20.09-6.1-30.326C-2.5,788.346.81,756.966,4.277,732.74l.075-.548.237-.508a141.271,141.271,0,0,0,8.609-25.84l.3-.809C77.078,577.311,197.932,511.79,314.787,448.418c65.918-35.742,134.072-72.7,190.8-120.332a194.649,194.649,0,0,1,12.6-16.212c8.994-10.735,17.518-20.882,20.226-33.841l.15-.646.348-.559c3.677-6.037,4.573-13.207,5.341-21.964l.051-.585.223-.535c4.646-11.192,1.716-22.871-1.391-35.219a151.515,151.515,0,0,1-3.305-15.479c-20.078-52.9-53.868-100.021-86.542-145.6C439.839,38.7,426.173,19.629,413.327,0h9.17c11.975,18.051,24.572,35.655,37,52.984,33.045,46.09,67.233,93.76,87.659,147.75l.2.857a136.616,136.616,0,0,0,3.205,15.071c3.229,12.846,6.56,26.114,1.268,39.457-.671,7.392-1.564,16.411-6.063,24.125-3.254,14.535-12.623,25.731-21.715,36.564a177.281,177.281,0,0,0-12.373,15.95l-.3.474-.422.359c-57.42,48.316-126.1,85.547-192.513,121.563-115.683,62.739-235.322,127.612-297.9,252.9a148.194,148.194,0,0,1-8.758,26.313C8.415,758,5.257,788.4,10.278,815.2l.05.387c.858,10.174,1.651,19.789,5.564,28.224l.211.572c39.121,139.2,148.707,260.519,279.2,309.069,24.476,9.3,49.447,18.385,73.622,27.168,42.836,15.578,87.137,31.679,129.974,49.545,35.108,11.6,69.024,25.318,100.255,38.35q26.5,9.391,53.023,18.635c47.557,16.659,96.752,33.892,144.583,52.152,43.779,11.878,98.914,46.34,110.566,104.494,11.9,65.273,4.847,134.632-1.34,195.655a493.264,493.264,0,0,1-8.9,74.117l-.473,3.5c-1.216,8.822-2.458,17.915-5.465,26.339-6.534,61.073-34.514,109.349-85.522,147.539-46.291,34.635-105.5,56.052-157.281,72.429l-.272.074c-21.768,5.244-44.824,11.975-70.615,20.6-19.332,5.788-39.928,10.657-61.694,15.825-88.952,21.071-189.754,44.925-217.756,141.949-9.641,50.589-9.144,108.705,1.466,163.79,29,191.52,140.906,427.389,361.1,461.9,50.588,9.841,103.709,14.138,155.066,18.313,49.148,3.975,99.958,8.1,148.585,17.045,65.944,4.223,110.59,60.2,128.828,107.038,8.622,24.7,18.314,49.346,28.028,73.471v20.424c-12.076-29.766-24.474-60.475-35.208-91.236" transform="translate(1041.568 0)" fill="#0e1811"/>
                <path id="Path_49" data-name="Path 49" d="M970.361,401.483v-.135c-.025-2.9-.025-5.79-.025-8.7l.025-12.907c0-4.549-.025-9.1-.1-13.642l-.072-.436c-1.789-4.693-2.434-9.6-3.13-14.8-.72-5.291-1.442-10.773-3.477-15.965-6.885-12.21-13.445-25.3-20.776-41.38l-.146-.276-1.444-1.776c-5.143-6.36-10.434-12.944-14.583-19.9l-.2-.25q-14.606-14.648-29.269-29.281-21.5-21.5-42.96-43.021c-23.775-18.61-47.233-38.735-69.916-58.191C722.44,87.759,658.483,32.883,582.479,3.725l-.247-.074C555.646-.558,528.189-.322,504.86.446l-.275.038C365.32,35.816,188.81,93.163,58.688,224.1,20.35,269.6.634,317.2,0,365.693c2.944,67.968,35.11,133.239,98.369,199.6a250.565,250.565,0,0,1,30.984,27.877C208.34,655.206,300.942,695.012,390.489,733.5c24.424,10.5,49.7,21.354,74.17,32.45,66.611,25.715,138.893,50.774,216.537,60.165,6.535-.038,12.9-.025,19.256-.013,8.2,0,16.671.026,25-.085,25.89-3.69,55.681-9.84,81.621-27.568,2.459-2.447,4.72-4.723,7.006-6.994,12.15-12.163,24.724-24.748,34.96-38.587,53.57-107.948,94.341-226.057,121.3-351.233Zm-2.584-8.831c0,2.857.024,5.714.048,8.571-26.932,124.942-67.608,242.791-120.953,350.313-10.014,13.505-22.51,26.014-34.611,38.115-2.287,2.273-4.548,4.561-6.808,6.845-25.345,17.267-54.761,23.344-80.2,26.984-8.15.087-16.6.074-24.8.062-6.359-.013-12.746-.026-19.106.025-77.2-9.342-149.3-34.351-215.7-59.967-24.424-11.083-49.718-21.938-74.142-32.45C302.085,692.724,209.63,653,131.09,591.314A247.334,247.334,0,0,0,100.058,563.4C37.419,497.63,5.466,432.9,2.56,365.645c.621-47.807,20.126-94.866,58.015-139.814C190.126,95.447,366.166,38.252,505.08,2.993c23.159-.768,50.341-.98,76.605,3.156,75.558,29.021,139.288,83.721,200.932,136.62,22.71,19.479,46.194,39.616,69.9,58.152,14.165,14.264,28.5,28.6,42.835,42.923q14.612,14.575,29.172,29.17c4.222,7.071,9.539,13.678,14.708,20.065l1.342,1.651c7.306,16.077,13.889,29.2,20.7,41.271,1.864,4.745,2.559,10.063,3.257,15.207.67,5.043,1.368,10.236,3.2,15.156q.079,6.69.076,13.38Z" transform="translate(1103.714 418.579)" fill="#0e1811"/>
                <path id="Path_50" data-name="Path 50" d="M798.646,333.219h0c0-1.977-.023-3.94-.05-5.9-.272-15.083-3.279-30.252-6.187-44.925-1.269-6.335-2.459-12.335-3.427-18.323l-.1-.285c-16.672-40.251-36.527-72.614-60.7-98.94C666.537,101.859,570.828,16.323,451.763.423,287.45-5.69,135.985,54.751,36.052,166.236,12.126,195.454,0,229.3,0,266.841c0,68.167,41.37,141.775,105.374,187.53,12.9,9.739,26.361,19.045,39.383,28.04,7.3,5.056,14.859,10.274,22.263,15.528,23.5,11.838,47.206,24.387,70.116,36.514,110.419,58.462,224.615,118.928,354.909,120.12l.175.01.175-.049a178.132,178.132,0,0,1,21.417-3.938c8.994-1.268,18.288-2.573,27.107-5.641,10.411-5.962,21.64-11.59,35.531-17.839l.323-.138.2-.274c3.378-4.694,8.226-7.529,12.522-9.826l.35-.272c3.129-3.43,6.36-6.485,9.516-9.455,3.653-3.478,7.455-7.057,11.057-11.2,43.356-50.031,88.23-161.977,88.23-262.728M786.47,264.63c.994,5.975,2.162,11.95,3.43,18.263,2.882,14.558,5.865,29.615,6.137,44.474,1.814,101.523-43.655,216.265-87.561,266.9a149.5,149.5,0,0,1-10.882,11.018c-3.107,2.96-6.335,6.015-9.492,9.442-4.72,2.534-9.542,5.542-12.994,10.2a390.734,390.734,0,0,0-35.233,17.717c-8.373,2.882-17.541,4.174-26.435,5.429a178.3,178.3,0,0,0-21.543,3.951C462.273,650.783,348.424,590.492,238.328,532.2c-22.934-12.139-46.637-24.685-69.994-36.437-7.254-5.17-14.807-10.4-22.137-15.456-12.994-8.982-26.439-18.275-39.333-27.99C43.506,407,2.559,334.211,2.559,266.841c0-36.936,11.925-70.23,35.432-98.94C137.376,57.023,288.12-3.119,451.564,2.969,569.708,18.746,664.972,103.922,726.343,166.608c23.9,26.027,43.581,58.1,60.127,98.022" transform="translate(1172.167 510.338)" fill="#0e1811"/>
                <path id="Path_51" data-name="Path 51" d="M631.95,292.692v-.013c0-59.531-19.255-114.829-54.19-155.739C534.6,89.609,491.991,55.905,447.466,33.841,408.729,16.2,374.194,5.639,341.791,1.551,279.528-3.354,219.1,3.428,166.947,21.167,108.555,41.046,60.553,73.941,24.327,118.977l-.348.583c-5.392,12.484-11.6,24.362-17.567,35.345l-.15.372A114.879,114.879,0,0,0,0,192.946c0,39.22,18.414,73.309,33.867,95.013l.323.347c9.292,9.032,18.61,18.388,27.629,27.442,7.778,7.816,15.829,15.9,23.854,23.766,48.351,39.906,108.407,69.833,161.4,96.234,63.707,31.727,126.419,60.674,193.529,66.19a174.017,174.017,0,0,0,20.673.051c5.79-.225,11.8-.448,17.565-.151l.4.026.4-.1c5.765-1.516,11.753-2.61,17.543-3.677,8.3-1.529,16.869-3.106,25.168-5.928l.522-.246A171.4,171.4,0,0,1,546.156,480.2l.621-.383c11.876-9.865,25.69-21.793,38.088-35.432l.2-.225c30.236-42.237,46.884-96.031,46.884-151.464M28.525,121.909C120.855,7.463,264.071.559,341.27,6.632c31.756,4.012,65.819,14.423,104.008,31.829,43.879,21.728,85.969,55.062,128.658,101.859,34.089,39.918,52.9,94.045,52.9,152.36v.013c0,54.328-16.275,107.016-45.843,148.371-12.05,13.208-24.969,24.425-37.17,34.587a174.4,174.4,0,0,0-23.382,11.765c-7.877,2.646-16.151,4.176-24.176,5.654-5.763,1.056-11.7,2.15-17.54,3.65-5.89-.285-11.854-.06-17.643.163a171.073,171.073,0,0,1-20.051-.025c-66.191-5.442-128.432-34.174-191.667-65.681C196.614,404.9,136.833,375.11,89.076,335.726c-7.826-7.7-15.876-15.776-23.654-23.579-8.969-9.018-18.238-18.325-27.529-27.345-14.984-21.094-32.8-54.1-32.8-91.856a109.483,109.483,0,0,1,5.915-35.792c5.914-10.945,12.125-22.774,17.516-35.245" transform="translate(1246.879 584.668)" fill="#0e1811"/>
                <path id="Path_52" data-name="Path 52" d="M453.971,271.342h0c0-72.228-29.417-138.269-80.7-181.23C287.772,25.473,200.039-4.628,112.456.576l-.548.038-.374.422c-1.491,1.8-3.874,1.939-6.383,2.077-2.658.147-5.667.323-7.653,2.669-12.6,1.266-22.736,8.088-32.549,14.7-2.93,1.974-5.964,4.012-8.994,5.852l-.275.211C16.148,68.022,10.434,124.411,4.918,178.95c-1.416,14-2.883,28.486-4.918,42.3.074,9.119.074,18.089.074,27.133C.1,330.057.122,414.534,54.14,476.823c33.12,30.288,77.049,38.315,119.612,42.488,104.5-7.578,180.261-40.748,231.793-101.424A382.781,382.781,0,0,1,429.2,382.382a260.013,260.013,0,0,0,24.77-111.041M113.126,3.1C199.915-1.934,286.9,28.02,371.68,92.11c50.663,42.427,79.731,107.771,79.758,179.231a257.361,257.361,0,0,1-24.424,109.723,372.869,372.869,0,0,0-23.53,35.358c-50.936,59.93-126.122,92.825-229.707,100.328-41.893-4.125-85.35-12.025-117.823-41.716C2.681,413.565,2.656,329.583,2.634,248.384q0-13.566-.1-26.959c2.035-13.692,3.5-28.2,4.918-42.215C12.919,125.157,18.583,69.266,57.421,28.43c3.031-1.852,6.036-3.878,8.944-5.839,9.689-6.511,19.7-13.257,31.926-14.313l.6-.05.323-.5c1.268-1.8,3.5-1.926,6.086-2.074,2.659-.15,5.641-.313,7.828-2.559" transform="translate(1333.794 1362.797)" fill="#0e1811"/>
                <path id="Path_53" data-name="Path 53" d="M405.2,199.948v-.013c0-99.014-111.063-187.927-206.574-198.325C163.465-2.068,45.594-7.1,4.072,82.251c-5.366,16-5.391,34.635-.3,52.834l.125.311a270.962,270.962,0,0,1,14.76,29.393l.223.324c1.713,2,3.5,4.1,5.341,6.261,8.5,9.977,18.138,21.294,28.575,30.326,40.3,34.9,109.572,73.507,168.434,93.921,28.5,9.877,57.273,13.169,102.617,11.751l.47-.025.35-.312c2.184-2.024,5.043-2.259,8.074-2.521a32.2,32.2,0,0,0,4.771-.659l.348-.137a268.543,268.543,0,0,1,29.392-14.77l.423-.31c2.933-3.168,6.037-6.262,9.07-9.257,2.681-2.658,5.44-5.4,8.076-8.21l.172-.224c13.393-22.6,20.2-46.488,20.2-71M2.556,108.164a78.452,78.452,0,0,1,3.878-24.97C47.205-4.49,163.639.517,198.35,4.143c94.467,10.3,204.289,98.057,204.289,195.792v.013c0,24-6.661,47.408-19.754,69.583-2.585,2.733-5.317,5.429-7.951,8.038-2.957,2.942-6.037,6-8.946,9.143a270.218,270.218,0,0,0-29.245,14.71,34.082,34.082,0,0,1-4.223.547c-3.18.272-6.46.561-9.218,2.857-44.724,1.379-73.149-1.888-101.226-11.627-58.613-20.3-127.537-58.726-167.615-93.424-10.287-8.907-19.854-20.139-28.275-30.054-1.814-2.111-3.555-4.172-5.269-6.136A270.809,270.809,0,0,0,6.184,134.24a97.891,97.891,0,0,1-3.628-26.077" transform="translate(1357.425 674.406)" fill="#0e1811"/>
                <path id="Path_54" data-name="Path 54" d="M701.893,586.981c0-22.762-1.293-45.571-2.534-67.609l-.4-6.707c-.122-3.827-.173-8.052-.173-13.245,0-2.807,0-5.638.026-8.473s.025-5.664.025-8.5c0-6.338-.076-11.234-.275-15.8l-.073-.4A16.818,16.818,0,0,0,696,462.1c-.121-2.783-.172-5.839-.172-9.592,0-2.064.025-4.1.025-6.162.026-2.061.026-4.1.026-6.162,0-4.8-.077-8.473-.276-11.925l-.074-.374a16.806,16.806,0,0,0-2.485-4.15c-.125-2.336-.173-4.845-.173-8.025,0-1.664.025-3.305.025-4.944.024-1.666.024-3.33.024-4.968,0-4.051-.074-7.132-.272-10.015l-.075-.372a16.025,16.025,0,0,0-2.459-4.126c-.672-20.35-1.642-40.153-5.939-58.86-.1-2.014-.15-4.349-.15-7.43,0-1.442.025-2.883.025-4.348.025-1.466.025-2.908.025-4.374,0-3.651-.073-6.434-.274-9.019-5.117-28.15-8.521-62.316-11.8-95.36-1.84-18.413-3.753-37.444-5.914-55.212q-.9-7.415-1.765-14.932c-4.546-38.81-9.218-78.963-25.517-114l-.174-.275c-7.9-9.266-17.891-15.181-27.557-20.919-1.638-.969-3.254-1.914-4.844-2.883l-.372-.15a28.382,28.382,0,0,0-3.43-.521c-2.559-.25-4.77-.47-6.309-2.336L595.748.2h-.6c-14.784-.225-30.587-.349-46.093.1C530.9,3.68,512.884,6.935,494.82,10.214,352.773,35.98,205.88,62.616,77.67,133.877l-.323.247c-3.552,3.9-7.43,7.653-11.156,11.281L64.551,147a12,12,0,0,1-2.137.97,9.839,9.839,0,0,0-3.925,2.259c-5.74,4.671-10.088,10.363-14.312,15.852a104.973,104.973,0,0,1-11.356,13.27l-.25.3A245.635,245.635,0,0,0,.048,286.609C.023,288.721,0,290.734,0,292.746c0,131.886,44.7,257.161,129.25,362.29,4.227,4.2,8.3,8.3,12.4,12.4,7,7.057,14.287,14.362,21.541,21.442,105.474,90.592,246.852,97.026,358.239,92.553,50.589-5.417,91.882-13.614,129.129-36.2l.272-.225c3.455-3.7,7.106-7.33,10.635-10.833,3.132-3.107,6.387-6.335,9.493-9.589l.147-.223c21.293-34.463,30.785-76.828,30.785-137.377m-5.666-87.562c0,5.218.051,9.467.2,13.345l.374,6.757c1.241,22.013,2.534,44.775,2.534,67.46,0,59.979-9.342,101.919-30.339,135.934-3.029,3.206-6.236,6.362-9.317,9.442-3.5,3.478-7.154,7.082-10.583,10.76-36.824,22.285-77.746,30.412-127.835,35.752-110.843,4.474-251.6-1.935-356.352-91.882-7.18-7.007-14.436-14.312-21.465-21.341-4.076-4.1-8.176-8.226-12.277-12.3-84.1-104.581-128.6-229.31-128.6-360.6,0-2.012,0-4.025.022-6.039a243,243,0,0,1,32.1-105.624,106.861,106.861,0,0,0,11.528-13.441c4.125-5.392,8.373-10.959,14.013-15.554a7.5,7.5,0,0,1,3.1-1.739,11.88,11.88,0,0,0,2.858-1.415l1.765-1.689c3.727-3.628,7.55-7.356,11.131-11.256C206.872,65.026,353.493,38.44,495.294,12.723c18.038-3.28,36.075-6.534,54.04-9.888,15.058-.422,30.636-.3,45.221-.1,2.162,2.284,5.046,2.556,7.6,2.832a25.24,25.24,0,0,1,2.931.4c1.539.943,3.107,1.864,4.672,2.783C619.2,14.339,628.968,20.129,636.571,29c16.051,34.636,20.724,74.49,25.219,113.051q.859,7.531,1.763,14.936c2.164,17.739,4.076,36.773,5.89,55.158,3.305,33.1,6.71,67.335,11.826,95.436.176,2.387.25,5.119.25,8.7,0,1.44,0,2.908-.026,4.348,0,1.466-.025,2.932-.025,4.374,0,3.129.076,5.516.2,7.8,4.3,18.811,5.241,38.638,5.888,58.987l.025.4.247.323a15.8,15.8,0,0,1,2.289,3.655c.172,2.757.272,5.738.272,9.64,0,1.638-.024,3.279-.024,4.943-.025,1.638-.05,3.305-.05,4.969,0,3.4.074,6.037.2,8.546l.025.4.249.323a16.523,16.523,0,0,1,2.284,3.625c.173,3.33.272,6.908.272,11.579,0,2.039-.022,4.1-.047,6.137,0,2.062-.026,4.123-.026,6.187,0,3.975.073,7.18.2,10.113l.026.4.248.323A15.717,15.717,0,0,1,696,466.971c.2,4.471.3,9.267.3,15.481,0,2.831-.025,5.663-.051,8.5,0,2.835-.025,5.666-.025,8.473" transform="translate(1378.195 1962.138)" fill="#0e1811"/>
                <path id="Path_55" data-name="Path 55" d="M287.8,174.471h0c0-41.968-15.654-83.137-42.935-112.942C221.434,35.8,189.008,16.781,145.7,3.378,102.593-6.65,60.826,6.024,36.6,36.41,12.97,74.226,0,120.627,0,167.215c0,56.377,19.206,106.392,54.091,140.807,27.952,20.449,63.732,28,100.853,21.343,34.14-6.113,67.956-24.028,92.753-49.173,25.865-27.827,40.1-65.371,40.1-105.721M2.559,167.215C2.559,121.1,15.38,75.17,38.685,37.876c23.507-29.493,64.3-41.805,106.37-32.04C187.817,19.078,219.867,37.876,243,63.245c26.835,29.356,42.241,69.9,42.264,111.226,0,39.7-14.011,76.627-39.432,103.958-46.262,46.935-128.655,72.576-190.1,27.654C21.493,272.268,2.559,222.9,2.559,167.215" transform="translate(1410.57 1463.57)" fill="#0e1811"/>
                <path id="Path_56" data-name="Path 56" d="M607.8,405.852h0c0-12.126-.2-24.45-.374-36.4-.073-5.266-.147-10.559-.2-15.828l-1.665-14.335c-10.86-94.22-22.114-191.645-73.1-273.835l-.2-.25c-6.235-5.964-12.446-12.226-18.461-18.263-5.44-5.465-11.055-11.131-16.721-16.6l-.25-.2C466.42,12.6,435.512,2.466,404.975.006,271.548-.489,160.035,29.948,73.4,90.5,24.646,132.638,0,189.613,0,259.927,0,333.474,28.275,420.91,77.622,499.773,119.734,564.4,183.716,611.21,262.652,635.188c73.994,22.484,156.088,22.66,231.176.522,32.374-14.388,57.47-32.8,76.8-56.328,30.859-49.023,37.172-104.8,37.172-173.529M530.376,66.944c50.614,81.669,61.819,178.748,72.652,272.642l1.638,14.187c.051,5.144.125,10.437.224,15.729.174,11.925.348,24.249.348,36.35,0,68.279-6.236,123.661-36.673,172.038-18.983,23.083-43.757,41.272-75.634,55.432C332.4,680.631,162.448,625.174,79.758,498.407,30.684,419.94,2.534,333,2.534,259.927c0-69.546,24.374-125.873,72.428-167.418C161.056,32.357,272.072,2.07,404.877,2.566c29.989,2.409,60.5,12.424,90.564,29.718,5.592,5.416,11.156,11.031,16.572,16.471,5.965,6.015,12.152,12.226,18.363,18.189" transform="translate(1425.453 2048.252)" fill="#0e1811"/>
                <path id="Path_57" data-name="Path 57" d="M515.868,313.326V313.3c0-96.678-25.495-183.094-73.722-249.959-3.082-3.079-6.037-6.037-8.968-8.994-5.27-5.266-10.71-10.732-16.152-16.026C390.838,20.11,362.14,7.639,333.915,2.1,262.381-4.613,129.178-.809,39.083,100.043,13.119,138.307,0,182.211,0,230.661c0,89.747,46.016,186.249,120.109,251.848,85.323,71.135,233.409,99.459,333.59,23.776,1.889-1.888,3.677-3.652,5.444-5.417,3.154-3.129,6.287-6.262,9.342-9.442,15.652-18.88,25.813-41.095,34.884-62.216a546.321,546.321,0,0,0,12.5-115.884M2.56,230.661C2.56,182.732,15.528,139.3,41.1,101.61,130.346,1.725,262.631-2.028,333.543,4.631c27.779,5.442,56.127,17.79,81.867,35.656,5.27,5.141,10.709,10.584,15.952,15.876,2.957,2.933,5.889,5.89,8.844,8.847,47.782,66.241,73.1,152.159,73.1,248.292v.024a545.588,545.588,0,0,1-12.35,115.116c-8.918,20.722-19.005,42.735-34.36,61.273-3.008,3.129-6.115,6.236-9.244,9.34-1.789,1.765-3.579,3.53-5.344,5.317C353,579.187,206.3,551.059,121.773,480.6,48.254,415.471,2.56,319.686,2.56,230.661" transform="translate(1473.059 2105.197)" fill="#0e1811"/>
                <path id="Path_58" data-name="Path 58" d="M108.434,82.651C69,68.141,31.11,38.859,0,0H3.305C33.867,37.691,70.838,66.1,109.327,80.254c8.821,3.379,19.654,2.621,30.139,1.889,3.628-.247,7.055-.484,10.435-.561C183.742,66.911,212.74,38.052,233.287,0h2.906c-20.919,39.246-50.685,69.011-85.522,84.017l-.47.112c-3.381.065-6.86.312-10.562.56-10.757.76-21.888,1.53-31.206-2.038" transform="translate(1547.423 0)" fill="#0e1811"/>
                <path id="Path_59" data-name="Path 59" d="M425.5,253.156v-.025c0-70.689-24.746-142.445-67.9-196.861-4.9-6.011-10.661-10.436-16.225-14.685a104.712,104.712,0,0,1-13.1-11.231l-.346-.372-.5-.223c-6.483-2.832-13.045-6.111-19.381-9.269C294.705,13.807,280.89,6.924,266.431,3.471,175.467-10.568,89.1,18.5,35.208,81.167l-.174.225A194.914,194.914,0,0,0,0,193.945c0,90.839,60.923,186.276,148.159,232.093C220.44,464,298.308,460.674,361.792,416.894l.422-.348c3.926-4.2,8.1-8.348,12.152-12.348,3.6-3.577,7.33-7.256,10.882-11.007l.272-.348c26.165-39.16,39.978-87.461,39.978-139.688M324.919,34.232a108.25,108.25,0,0,0,13.342,11.4c5.59,4.274,10.86,8.3,15.355,13.815,42.413,53.52,66.765,124.109,66.789,193.68v.025c0,51.133-13.491,98.394-39.01,136.68-3.452,3.628-7.107,7.231-10.632,10.735-4,3.976-8.15,8.076-12.1,12.3C295.924,456,222.03,459.084,150.521,421.54c-85.622-45-145.427-138.57-145.427-227.6A190.118,190.118,0,0,1,39.159,84.4C91.907,23.149,176.485-5.225,265.462,8.491c13.666,3.255,27.206,10.039,40.3,16.571,6.262,3.107,12.7,6.336,19.156,9.17" transform="translate(1520.218 2158.659)" fill="#0e1811"/>
                <path id="Path_60" data-name="Path 60" d="M314.334,184.023V184c-.025-41.147-12.522-82.143-35.233-115.438C254.6,32.681,221.208,9.6,182.5,1.8,119.213-6.85,61.22,15.959,23.356,64.385A143.888,143.888,0,0,0,0,143.747c0,65.643,43.481,135.14,105.771,169,52.3,28.451,106.99,27.357,153.951-3.08,35.256-29.766,54.613-74.365,54.613-125.648M2.559,143.747A141.269,141.269,0,0,1,25.417,65.876C62.662,18.27,119.784-4.191,182.075,4.333c84.206,16.919,129.7,105.2,129.7,179.666,0,50.563-19.034,94.467-53.571,123.637-46.015,29.791-99.758,30.86-151.214,2.881C45.494,277.073,2.559,208.5,2.559,143.747" transform="translate(1577.266 2220.587)" fill="#0e1811"/>
                <path id="Path_61" data-name="Path 61" d="M270.8,53.789C220.29,16.27,147.516-5.2,85.322,5.113,48.377,11.225,20.5,27.974,3.08,53.789H0C17.69,26.606,46.463,8.965,84.9,2.6c63.831-10.585,138.768,12,189.977,51.184Z" transform="translate(1622.412 2999.368)" fill="#0e1811"/>
                <path id="Path_62" data-name="Path 62" d="M186.127,111.528V111.5c0-48.1-32.548-102.492-86.989-110.3C74.64-2.818,52.005,3.27,33.694,18.824,12.6,36.738,0,65.163,0,94.807c0,21.79,6.783,41.867,19.654,58.066,5.366,5.119,10.559,10.334,15.58,15.38,4.473,4.548,9.119,9.219,13.815,13.714,31.382,20.848,73.993,22.116,103.784,3.207,21.517-17.864,33.294-44,33.294-73.645M2.534,94.807c0-28.9,12.276-56.578,32.824-74.045C53.073,5.73,74.988-.16,98.767,3.744c53.1,7.577,84.8,60.75,84.8,107.758v.025c0,28.873-11.455,54.316-32.227,71.584C122.5,201.4,81.025,200.156,50.639,179.98c-4.5-4.323-9.119-8.994-13.592-13.516-5.045-5.072-10.238-10.313-15.53-15.307C9.144,135.553,2.534,116.024,2.534,94.807" transform="translate(1642.835 2289.031)" fill="#0e1811"/>
                <path id="Path_63" data-name="Path 63" d="M322.74,623.986C202.183,538.2,77.528,449.513,11.76,312.073c-2.089-1.936-2.585-5.416-3.081-8.77l-.077-.435c-4.447-7.456-5.266-16.486-5.913-23.8C-2.2,263.522.6,245.72,3.089,230c.4-2.522.769-5,1.168-7.628,11.976-39.294,28.2-77.993,43.88-115.411C62.746,72.154,77.626,36.586,89.331,0h2.685C80.238,36.945,65.207,72.838,50.494,107.946c-15.651,37.368-31.852,76.006-43.753,114.99-.349,2.447-.746,4.943-1.143,7.468-2.56,16.235-5.219,33.02-.448,48.029l.051.272c.818,9.081,1.738,16.548,5.736,23.059l.276,1.168c.421,3,.87,6.111,2.384,7.365l.348.437C79.418,447.712,203.875,536.264,324.23,621.9c27.605,19.651,55.707,39.678,83.138,60.315v3.205c-27.877-21.033-56.5-41.433-84.628-61.435" transform="translate(1755.284 0)" fill="#0e1811"/>
                <path id="Path_64" data-name="Path 64" d="M145.55,491.268C68.45,426.394,20.745,352.1,3.749,270.481c-6.632-32.139-3.4-63.508,1.516-101.189l.125-.918.7-.622c1.765-1.641,1.689-4.015,1.417-7.74-.2-2.8-.421-5.964.793-8.872C14.832,119.289,23.3,87.336,31.479,56.427,36.4,37.879,41.392,19.021,46.015,0h5.266c-4.722,19.48-9.839,38.759-14.858,57.743-8.2,30.923-16.673,62.887-23.181,94.69l-.176.546c-.819,1.8-.646,4.163-.47,6.672.272,3.7.57,7.864-2.362,11.156-4.818,36.811-7.925,67.522-1.491,98.641,36.5,175.269,205.383,275.066,309.466,320.882v5.8C264.763,573,202.573,539.246,145.55,491.268" transform="translate(1844.444)" fill="#0e1811"/>
                <path id="Path_65" data-name="Path 65" d="M2.76,240.627c-6.71-49.606,0-100.281,7.479-147.987,2.808-13.541,5.813-27.282,8.747-40.573C22.761,34.959,26.563,17.579,30.066,0h2.61C29.148,17.765,25.3,35.333,21.469,52.614,18.563,65.893,15.53,79.634,12.749,93.1,5.321,140.557-1.364,191.021,5.294,240.3,21.245,379.632,138.4,482.957,259.923,533.993v2.746C137.255,485.491,18.861,381.283,2.76,240.627" transform="translate(1902.73 -0.001)" fill="#0e1811"/>
                <path id="Path_66" data-name="Path 66" d="M5.186,228.912c-10.262-48.787-3.254-99.288,3.5-148.137,1.344-9.652,2.732-19.642,3.927-29.343l.074-.285c3.753-10.312,4.847-21.916,5.865-32.338C20.144,12.561,21.587,6.274,22.928,0h2.585c-1.369,6.434-2.835,12.859-4.45,19.242-.992,10.351-2.111,22.053-5.913,32.652-1.216,9.663-2.582,19.613-3.926,29.232C4.491,129.749-2.49,180.039,7.72,228.5c13.592,120.033,108.232,209.842,207.4,255.522v2.808C114.884,440.965,18.928,350.262,5.186,228.912" transform="translate(1947.536 0)" fill="#0e1811"/>
                <path id="Path_67" data-name="Path 67" d="M4.772,208.228c-10.658-58.156-1.388-117.463,7.6-174.822C14.092,22.422,15.83,11.143,17.446,0H20c-1.59,11.243-3.379,22.684-5.119,33.8C5.94,90.951-3.3,150.049,7.284,207.866c9.739,94.144,76.677,182.548,166.1,228.491v2.857C82.644,393.047,14.614,303.526,4.772,208.228" transform="translate(1989.269 0)" fill="#0e1811"/>
                <path id="Path_68" data-name="Path 68" d="M142.929,2.732C70.577,32.376,28.958,93.5,13.775,190.624,5.38,255.722-4.214,353.146,9.3,447.165c.323,28.822,29.769,47.782,47.484,56.6,29.146,1.542,58.214,1.119,86.143-.2v2.559a865.181,865.181,0,0,1-86.565.173l-.5-.147c-18.187-9.021-48.774-28.65-49.1-58.789C-6.8,353.2,2.842,255.549,11.267,190.252c9.889-63.435,30.884-110.981,64.18-145.328C94.129,25.653,116.492,10.747,142.929,0Z" transform="translate(2019.724 1425.203)" fill="#0e1811"/>
                <path id="Path_69" data-name="Path 69" d="M11.651,226.367C-3.383,170.733-3.88,99.858,10.234,15.553,11.5,10.472,12.544,5.268,13.465,0h5.192c-.969,5.629-2.088,11.183-3.43,16.6C1.288,99.983,1.736,170.112,16.594,225.036,35.28,294.2,75.531,349.048,134.268,386.441v6.012C72.9,354.327,30.98,297.862,11.651,226.367" transform="translate(2028.385 -0.002)" fill="#0e1811"/>
                <path id="Path_70" data-name="Path 70" d="M99.833,4.671c-31.257,48.489-57.893,99.66-73.076,155.9-1.016,8.31-3.577,16.1-6.037,23.642-.992,3.018-1.987,6.012-2.806,8.8-1.194,11.477-4.025,22.473-6.761,33.1-.72,2.806-1.44,5.6-2.111,8.36-12.1,57.558-7.2,104.058,14.113,134.469,14.41,20.525,35.978,32.946,64.106,36.911,4.2.508,8.4,1.081,12.571,1.641v2.57c-4.3-.569-8.571-1.155-12.92-1.676C58.066,404.32,35.9,391.534,21.07,370.4-.672,339.407-5.715,292.211,6.533,233.9q1.046-4.211,2.162-8.421c2.707-10.537,5.517-21.431,6.707-32.949.9-3.044,1.89-6.061,2.883-9.106,2.434-7.417,4.968-15.093,5.964-23.332C39.879,102.145,67.533,49.656,99.833,0Z" transform="translate(2062.819 900.429)" fill="#0e1811"/>
                <path id="Path_71" data-name="Path 71" d="M15.7,221.483C-3.285,160.2-5.074,83.956,10.454,0h2.612C-2.812,86.714-14.39,249.422,95.207,337.628v3.355c-37.294-29.346-63.929-69.3-79.508-119.5" transform="translate(2067.445 0)" fill="#0e1811"/>
                <path id="Path_72" data-name="Path 72" d="M4.42,166.237C-3.88,112.605.615,53.718,8.791,0h2.632C-5.3,109.611-3.732,217.756,61.615,288.01V291.7C31.4,260,12.518,218.439,4.42,166.237" transform="translate(2101.037 0)" fill="#0e1811"/>
                <path id="Path_73" data-name="Path 73" d="M57.42,3.5C32.773,27.629,16.473,59.88,10.909,90.193c-20.823,143.763.943,294.384,25,436.357,4.546,26.288,10.36,54.093,21.517,78.738v6.037c-12.8-26.114-19.132-56.1-24.026-84.352C9.293,384.8-12.473,233.955,8.373,89.77,14.187,58.238,31.4,24.7,57.42,0Z" transform="translate(2105.232 2047.986)" fill="#0e1811"/>
                <path id="Path_74" data-name="Path 74" d="M35.64,4.5C11.264,40.154.406,85.848,2.918,127.116c2.211,36.375,13.712,66.963,32.722,89.7v3.578c-1.988-2.286-3.951-4.648-5.788-7.107C12.583,190.176,2.4,160.435.357,127.29-2.253,84.257,9.425,36.551,35.64,0Z" transform="translate(2127.013 1564.816)" fill="#0e1811"/>
                <path id="Path_75" data-name="Path 75" d="M7.943,0H10.5C.539,69.234-4.134,144.694,21.733,204.724v6.36C-6.964,149.788-2.369,71.572,7.943,0" transform="translate(2140.92 0)" fill="#0e1811"/>
                <path id="Path_76" data-name="Path 76" d="M8.022,14.711C.717,61.2.717,113.675,8.022,173.778v19.629C-2.687,118.5-2.661,55.036,8.022,0Z" transform="translate(2154.63 2217.314)" fill="#0e1811"/>
              </g>
            </g>
          </g>
        </g>
      </g>
    </g>
  </g>
</svg>
