<svg xmlns="http://www.w3.org/2000/svg" xmlns:xlink="http://www.w3.org/1999/xlink" width="65" height="64" viewBox="0 0 65 64">
  <defs>
    <clipPath id="clip-path">
      <rect id="Rectangle_33" data-name="Rectangle 33" width="23.615" height="36.903" fill="#dcb4a2"/>
    </clipPath>
  </defs>
  <g id="Group_66" data-name="Group 66" transform="translate(-447 -4871)">
    <g id="Group_31" data-name="Group 31" transform="translate(849 -473)">
      <g id="Ellipse_10" data-name="Ellipse 10" transform="translate(-402 5344)" fill="none" stroke="#dcb4a2" stroke-width="1">
        <ellipse cx="32.5" cy="32" rx="32.5" ry="32" stroke="none"/>
        <ellipse cx="32.5" cy="32" rx="32" ry="31.5" fill="none"/>
      </g>
    </g>
    <g id="Group_42" data-name="Group 42" transform="translate(467.693 4885.652)">
      <g id="Group_41" data-name="Group 41" clip-path="url(#clip-path)">
        <path id="Path_113" data-name="Path 113" d="M17.538,31.917a23.951,23.951,0,0,1-4.969,4.823.618.618,0,0,1-.8.03,30.133,30.133,0,0,1-6.912-7.235A27.994,27.994,0,0,1,.212,17.764,17.936,17.936,0,0,1,1.879,6.751,13.06,13.06,0,0,1,4.451,3.406,11.479,11.479,0,0,1,12.328,0,10.291,10.291,0,0,1,19.8,3.58,12.725,12.725,0,0,1,21.8,6.43c1.83,3.538,2.225,8.048,1.421,12.619a29.709,29.709,0,0,1-5.681,12.859ZM11.806,7.136c3.246,0,5.875,3.087,5.875,6.892s-2.632,6.892-5.875,6.892-5.875-3.084-5.875-6.892S8.56,7.136,11.806,7.136" transform="translate(0 0)" fill="#dcb4a2" fill-rule="evenodd"/>
      </g>
    </g>
  </g>
</svg>
