<svg xmlns="http://www.w3.org/2000/svg" width="65" height="64" viewBox="0 0 65 64">
  <g id="Group_67" data-name="Group 67" transform="translate(-1164 -4871)">
    <g id="Group_63" data-name="Group 63" transform="translate(1566 -473)">
      <g id="Ellipse_10" data-name="Ellipse 10" transform="translate(-402 5344)" fill="none" stroke="#dcb4a2" stroke-width="1">
        <ellipse cx="32.5" cy="32" rx="32.5" ry="32" stroke="none"/>
        <ellipse cx="32.5" cy="32" rx="32" ry="31.5" fill="none"/>
      </g>
    </g>
    <g id="Group_58" data-name="Group 58" transform="translate(191.528 4533.654)">
      <path id="Path_13" data-name="Path 13" d="M1012.724,384.848h-15.5a2.4,2.4,0,0,0-.26-.063,8.083,8.083,0,0,1-2.371-.66,8.457,8.457,0,0,1-4.889-5.88c-.094-.378-.156-.765-.233-1.148V361.6c.051-.276.1-.553.152-.828a8.565,8.565,0,0,1,8.448-6.921q6.9-.007,13.8.005a9.168,9.168,0,0,1,1.653.146,8.542,8.542,0,0,1,6.762,6.651,9.246,9.246,0,0,1,.18,1.83c.015,4.58,0,9.161.01,13.741a8.258,8.258,0,0,1-.732,3.52,8.439,8.439,0,0,1-5.873,4.875C1013.494,384.71,1013.107,384.771,1012.724,384.848Zm4.973-15.5h.012q0-3.376,0-6.751a6.338,6.338,0,0,0-.291-2.023,5.853,5.853,0,0,0-5.631-3.972c-4.542.026-9.084,0-13.626.02a6.834,6.834,0,0,0-1.958.293,5.78,5.78,0,0,0-3.977,5.614c.026,4.541,0,9.082.02,13.623a6.835,6.835,0,0,0,.293,1.958,5.784,5.784,0,0,0,5.615,3.977c4.542-.027,9.084-.01,13.626,0a5.67,5.67,0,0,0,2.767-.635,5.516,5.516,0,0,0,3.133-4.894C1017.751,374.155,1017.7,371.752,1017.7,369.35Z" transform="translate(0)" fill="#dcb4a2"/>
      <path id="Path_14" data-name="Path 14" d="M1121.29,477.662a7.992,7.992,0,1,1-8.012,7.957A8.009,8.009,0,0,1,1121.29,477.662Zm5.2,7.982a5.221,5.221,0,1,0-5.219,5.23A5.206,5.206,0,0,0,1126.492,485.643Z" transform="translate(-116.3 -116.307)" fill="#dcb4a2"/>
      <path id="Path_15" data-name="Path 15" d="M1350.94,443.183a2.025,2.025,0,0,1-2.025-2.013,2.024,2.024,0,1,1,4.049,0A2.028,2.028,0,0,1,1350.94,443.183Z" transform="translate(-337.641 -80.126)" fill="#dcb4a2"/>
    </g>
  </g>
</svg>
